<?xml version="1.0" encoding="utf-8" ?>
<svg baseProfile="full" height="300mm" version="1.1" viewBox="0,0,200,300" width="200mm" xmlns="http://www.w3.org/2000/svg" xmlns:ev="http://www.w3.org/2001/xml-events" xmlns:xlink="http://www.w3.org/1999/xlink"><defs /><rect fill="#222222" height="300" width="200" x="0" y="0" /><text fill="#FFFFFF" style="font-size:12px; font-family:Arial; font-weight:bold;" x="10" y="20">Over 1km Runs</text><text fill="#FFFFFF" style="font-size:4px; font-family:Arial" x="10" y="280">ATHLETE</text><text fill="#FFFFFF" style="font-size:9px; font-family:Arial" x="10" y="290">Ergou</text><text fill="#FFFFFF" style="font-size:4px; font-family:Arial" x="120" y="280">STATISTICS</text><text fill="#FFFFFF" style="font-size:3px; font-family:Arial" x="120" y="285">Number: 5</text><text fill="#FFFFFF" style="font-size:3px; font-family:Arial" x="120" y="290">Weekly: 2.5</text><text fill="#FFFFFF" style="font-size:3px; font-family:Arial" x="141" y="285">Total: 25.2 km</text><text fill="#FFFFFF" style="font-size:3px; font-family:Arial" x="141" y="290">Avg: 5.0 km</text><text fill="#FFFFFF" style="font-size:3px; font-family:Arial" x="167" y="285">Min: 1.4 km</text><text fill="#FFFFFF" style="font-size:3px; font-family:Arial" x="167" y="290">Max: 10.8 km</text><polyline fill="none" points="19.739910313859582,34.96500725246733 17.838565022451803,53.706387551676016 14.789237668039277,72.67572672275128 15.112107623368502,74.40026526962174 15.973094170447439,75.35330353165045 18.41255605383776,76.39711044775322 39.25560538121499,79.34701711148955 37.49775784742087,89.83074139489327 37.92825112096034,91.73690827173414 47.97309417044744,93.09846267016837 50.448430493241176,94.23309555568267 52.09865470859222,93.5977006672183 69.96412556036375,96.45698714040918 75.70403587445617,98.3631916581071 77.89237668178976,98.22703383339103 78.6816143495962,100.26940700446721 78.1793721972499,104.44496417487971 79.00448430492543,105.03499274753267 81.15695067262277,104.44496417487971 86.0,104.53573773388052 70.86098654707894,97.31931641418487 50.48430493264459,94.59617888939101 44.134529147995636,93.46154477616074 43.38116591912694,92.50845508585917 38.68161434982903,92.00921870954335 37.53363228705712,91.37382803176297 37.42600896861404,89.2861242761137 38.71748878946528,83.38616214174544 38.68161434982903,80.16391892603133 16.008968609850854,76.76017448399216 14.251121076289564,74.26411716738949 14.0,72.17651985003613 15.32735426002182,61.87487106543267 16.080717488890514,59.01587922137696 17.049327354179695,57.92674587731017 16.547085201833397,56.33843275276013 17.08520179381594,55.249308097176254" stroke="#4dd2ff" stroke-linecap="round" stroke-linejoin="round" stroke-width="0.5"><title>2023-01-15 5.5km</title></polyline><polyline fill="none" points="153.11891284422018,105.16770223167259 153.43475211958867,105.36745343956864 153.09259290469345,104.33540727617219 153.85587115341332,98.2763847753522 156.40890529600438,84.22801598883234 155.75090680562425,82.82988094800385 157.80386209557764,69.28169769095257 152.6188339915825,62.1250957705779 152.30299471621402,60.893515478877816 155.9088264432503,36.72915856918553 155.14554819453042,35.7639648882905 153.75059139495715,35.397857929579914 143.88061403972097,34.099846731929574 142.69621675706003,34.26625804178184 142.85413639480248,35.065033893624786 142.6698968175333,34.499234064423945 141.88029862917028,34.76549264573259 143.53845482482575,35.464422790682875 143.53845482482575,34.76549264573259 143.14365573052783,34.698927973455284 144.03853367746342,34.0 151.3291569504654,35.19816345401341 154.40858988533728,35.19816345401341 155.35610771155916,35.93037732219091 155.96146632253658,37.29496351926355 152.5398741727695,61.55923379084561 158.11970137094613,70.08058708487079 157.59330257866532,71.2789260338759 155.96146632253658,82.69672564370558 156.56682493374683,84.960375606257 156.06674608099274,85.3265562314773 154.64546934189275,93.64898996567354 153.67163157614414,102.43778529547853 153.03995302529074,105.46732910419814 152.0924351993017,105.46732910419814 151.53971646737773,106.0 152.19771495787427,105.10111853171838" stroke="#4dd2ff" stroke-linecap="round" stroke-linejoin="round" stroke-width="0.5"><title>2023-01-15 6.0km</title></polyline><polyline fill="none" points="56.02841793606058,118.84710452472791 57.33691175142303,119.31999420956708 55.09377949684858,132.79745772480965 55.93495409237221,135.87129428237677 50.233659610152245,169.32952185417525 50.7944426741451,177.96029710257426 45.653931255917996,180.67960010352544 43.504262844566256,186.0 44.34543744055554,182.2166011929512 44.065045908559114,181.15252322796732 42.38269671658054,182.09837024402805 43.597726688720286,182.45306313876063 44.90622050408274,178.5514492096845 45.934322787914425,180.44313863734715 44.43890128470957,182.5712941356469 50.233659610152245,174.41339285392314 49.76634039031342,169.09306345740333 57.61730328341946,115.77332780696452 56.402273311745375,114.0 53.78528568148613,114.0" stroke="#4dd2ff" stroke-linecap="round" stroke-linejoin="round" stroke-width="0.5"><title>2023-01-12 1.5km</title></polyline><polyline fill="none" points="155.52569703757763,114.0 156.6014964603819,115.73189226351678 150.24449986917898,167.31904334458522 148.28850091760978,172.63874712656252 149.16870044590905,179.56677981629036 143.59410343505442,183.2782474788837 143.39850354008377,186.0 148.87530060345307,176.96876141009852 150.3422998166643,152.8446570597589 155.9168968279846,114.86594572197646 152.49389866320416,114.37111949478276" stroke="#4dd2ff" stroke-linecap="round" stroke-linejoin="round" stroke-width="0.5"><title>2023-01-09 1.4km</title></polyline><polyline fill="none" points="71.83539272716735,251.0385264083452 73.80972520937212,238.62127722639707 73.42934922664426,237.29254798401962 74.75160859548487,228.40407541941386 71.40067731833551,223.59349856714834 71.00218819349539,222.562678430113 73.12142581201624,207.0553185378667 73.5923675049562,206.29945689317537 73.33878351643216,205.54359861800913 72.01652414770797,204.76483907087822 68.0316328991903,204.53579282594728 58.08751792018302,202.79505147557938 49.39320974180009,201.67274086966063 47.07472756085917,201.0085197245062 43.47021229530219,200.87109498481732 42.52832890918944,200.34430118117598 39.34041591058485,197.3438981147192 36.38797375827562,195.62613399757538 30.82723915250972,194.71000025005196 25.248391404631548,194.02290318746236 26.00914337032009,198.92425647136406 24.994807416107506,194.0 36.0800503436476,195.30548662290676 38.960039927624166,197.02324749194668 43.57889114739373,200.93980734070647 47.436990401591174,200.98561559346854 49.5743411622243,201.64983664892497 63.503347389632836,203.71122890597326 64.1191942190053,203.89446498613688 64.49957020161673,204.53579282594728 64.89805932657328,204.00898763671285 65.55013243993744,203.98608310040436 72.37878698843997,204.99388562518288 73.17576523812022,205.4977891338931 73.79161206737626,205.17712309144554 73.55614122084808,205.24583719234215 73.80972520937212,205.635217623465 72.70482354506385,210.5827174342121 71.1289801876992,222.6772136913787 71.9078452953836,224.1661791294464 74.78783487947658,227.94591936151846 75.00519258400891,228.88514061286696 73.5018017947441,237.38418414909393 73.9546303456882,238.87327877499047 73.53802807885222,239.92710749214166 72.34256070433185,249.09111168349045 71.96218472148757,249.8929856249306 72.05275043169968,251.01561551677878 70.53124650043901,260.1573071781313 70.11464423360303,265.38135240084375 69.13653456361499,266.0" stroke="#4dd2ff" stroke-linecap="round" stroke-linejoin="round" stroke-width="0.5"><title>2023-01-08 10.8km</title></polyline></svg>