<?xml version="1.0" encoding="utf-8" ?>
<svg baseProfile="full" height="300mm" version="1.1" viewBox="0,0,200,300" width="200mm" xmlns="http://www.w3.org/2000/svg" xmlns:ev="http://www.w3.org/2001/xml-events" xmlns:xlink="http://www.w3.org/1999/xlink"><defs /><rect fill="#222222" height="300" width="200" x="0" y="0" /><text fill="#FFFFFF" style="font-size:12px; font-family:Arial; font-weight:bold;" x="10" y="20">Over 1km Runs</text><text fill="#FFFFFF" style="font-size:4px; font-family:Arial" x="10" y="280">ATHLETE</text><text fill="#FFFFFF" style="font-size:9px; font-family:Arial" x="10" y="290">Ergou</text><text fill="#FFFFFF" style="font-size:4px; font-family:Arial" x="120" y="280">STATISTICS</text><text fill="#FFFFFF" style="font-size:3px; font-family:Arial" x="120" y="285">Number: 7</text><text fill="#FFFFFF" style="font-size:3px; font-family:Arial" x="120" y="290">Weekly: 2.3</text><text fill="#FFFFFF" style="font-size:3px; font-family:Arial" x="141" y="285">Total: 38.8 km</text><text fill="#FFFFFF" style="font-size:3px; font-family:Arial" x="141" y="290">Avg: 5.5 km</text><text fill="#FFFFFF" style="font-size:3px; font-family:Arial" x="167" y="285">Min: 1.4 km</text><text fill="#FFFFFF" style="font-size:3px; font-family:Arial" x="167" y="290">Max: 10.8 km</text><polyline fill="none" points="58.22864364867564,77.33342646082747 58.65421509568114,75.3149554959673 58.51235794671811,72.89282274746802 59.77134014421608,65.22296893937164 56.100786413415335,60.33418278497993 55.95892926445231,59.19049671848188 58.33503651036881,43.695448498474434 57.909465063363314,42.75368322664872 56.96966145117767,42.23795688958489 56.59728643496055,42.46218553491053 55.1077863703249,42.30522545138956 50.10732186748646,41.40831353561953 49.45123255322687,42.260379740502685 49.876804000348784,42.05857419146923 49.575357558671385,41.72223215489066 48.4936967974063,41.228931734047364 35.42510694428347,39.36785698091262 32.49930324591696,38.538227971585 29.289785249275155,38.62791739430395 28.013070908142254,37.97767017740989 24.041070735664107,34.41256690910086 21.860017069615424,33.24663780053379 20.210927712265402,33.0 21.877749213250354,33.1569512852293 23.91694573033601,34.18834913687897 28.988338807597756,38.42611626134021 32.676624682033435,38.470960936363554 34.680356911965646,39.16605494840769 55.65748282277491,42.30522545138956 57.35976861091331,42.282802594447276 58.015857925172895,42.75368322664872 58.299572223215364,43.96452527193469 56.065322126145475,60.08750473149121 59.71814371331129,65.08841326466063 59.78907228785101,65.78361875834526 58.370500797755085,74.26087486222968 58.76060795749072,75.87563941223198 58.13998293050099,78.16324942396022 56.84553644573316,87.0" stroke="#4dd2ff" stroke-linecap="round" stroke-linejoin="round" stroke-width="0.5"><title>2023-01-17 8.1km</title></polyline><polyline fill="none" points="186.9595050617354,65.97991749434732 177.119235095568,64.59694141789805 176.3295838019112,64.05912011454348 175.45894263219088,61.34442636265885 166.36782902129926,59.961484123778064 161.99437570304144,58.194405953225214 133.91113610798493,54.020069350721315 133.2227221596986,53.94324193155626 133.2429696287727,54.173724282416515 135.99662542180158,59.09074789308943 133.0,54.09689680096926 133.28346456692088,53.81519630231196 134.9640044993721,53.94324193155626 138.28458942635916,54.78834525530692 161.95388076477684,58.01513807417359 163.91788526438177,59.09074789308943 166.34758155222517,59.80782449821709 175.49943757022265,61.2675959734479 176.18785151850898,63.572521203313954 177.03824521927163,64.41766748041846 186.9190101235872,65.95430673455121 187.0,66.18480369768804" stroke="#4dd2ff" stroke-linecap="round" stroke-linejoin="round" stroke-width="0.5"><title>2023-01-16 5.5km</title></polyline><polyline fill="none" points="17.304932735511102,93.72375543939415 15.87892376689706,107.77979066380067 13.591928251087666,122.00679504213622 13.834080717526376,123.30019895225996 14.47982062783558,124.01497764879605 16.30941704043653,124.79783283587312 31.94170403596945,127.01026283367537 30.62331838568207,134.87305604625726 30.946188340894878,136.30268120381515 38.479820627951995,137.32384700269904 40.33632286998909,138.1748216668493 41.57399103150237,137.69827550044283 54.97309417044744,139.84274035535054 59.278026905842125,141.27239374362398 60.91928251134232,141.1702753751306 61.51121076231357,142.7020552533795 61.134529147995636,145.833723131218 61.75336322863586,146.27624456066405 63.36771300446708,145.833723131218 67.0,145.90180330042494 55.6457399103092,140.48948731069686 40.36322869954165,138.44713416707236 35.60089686093852,137.5961585821351 35.03587443951983,136.88134131446714 31.511210762429982,136.5069140321575 30.650224215351045,136.03037102386588 30.569506726576947,134.46459320711438 31.53811659209896,130.03962160635274 31.511210762429982,127.6229391945526 14.50672645738814,125.07013086305233 13.188340807217173,123.19808787555667 13.0,121.6323898875853 13.995515695074573,113.90615329914726 14.560538116726093,111.76190941612003 15.286995515692979,110.94505940802628 14.910313901375048,109.7538245646283 15.313901345361955,108.9369810729404" stroke="#4dd2ff" stroke-linecap="round" stroke-linejoin="round" stroke-width="0.5"><title>2023-01-15 5.5km</title></polyline><polyline fill="none" points="162.33918463310692,146.37577667372534 162.5760640896624,146.52559007966192 162.31944467849098,145.75155545712914 162.89190336503088,141.2072885814996 164.80667897197418,130.67101199159515 164.31318010413088,129.62241071095923 165.85289657162502,119.46127326821443 161.96412549365778,114.09382182790432 161.72724603721872,113.17013660917291 164.43161983240861,95.04686892684549 163.8591611458687,94.32297366621788 162.81294354621787,94.04839344715583 155.41046052984893,93.07488504896173 154.52216256782413,93.19969353135093 154.64060229610186,93.79877542020404 154.50242261309177,93.3744255483034 153.9102239718195,93.574119484314 155.1538411185611,94.09831709298305 155.1538411185611,93.574119484314 154.85774179780856,93.5241959800478 155.52890025812667,93.0 160.99686771281995,93.89862259052461 163.30644241394475,93.89862259052461 164.01708078361116,94.44778299162863 164.47109974187333,95.47122263943311 161.9049056294607,113.66942534313421 166.0897760281805,120.06044031365309 165.694976933999,120.95919452540693 164.47109974187333,129.52254423277918 164.92511870025191,131.2202817046782 164.55005956068635,131.49491717357887 163.48410200641956,137.73674247422605 162.7537236821372,144.32833897159435 162.27996476890985,146.6004968281486 161.56932639947627,146.6004968281486 161.1547873505624,147.0 161.6482862184057,146.32583889877424" stroke="#4dd2ff" stroke-linecap="round" stroke-linejoin="round" stroke-width="0.5"><title>2023-01-15 6.0km</title></polyline><polyline fill="none" points="44.52131345216185,156.63532839354593 45.50268381368369,156.98999565723352 43.82033462263644,167.09809329349082 44.45121556939557,169.40347071178257 40.17524470761418,194.49714139068965 40.59583200560883,200.9702228269307 36.74044844182208,203.0097000777023 35.12819713354111,207.0 35.75907808030024,204.1624508947134 35.54878443153575,203.3643924210919 34.28702253755182,204.07377768296283 35.198295016773045,204.33979735407047 36.179665378294885,201.41358690720517 36.950742091052234,202.83235397806857 35.82917596353218,204.42847060179338 40.17524470761418,198.31004464032594 39.82475529285148,194.3197975930525 45.71297746291384,154.3299958553398 44.80170498415828,153.0 42.8389642611146,153.0" stroke="#4dd2ff" stroke-linecap="round" stroke-linejoin="round" stroke-width="0.5"><title>2023-01-12 1.5km</title></polyline><polyline fill="none" points="164.14427277818322,153.0 164.95112234540284,154.29891919752117 160.18337490176782,192.9892825083807 158.71637568809092,196.97906034486368 159.3765253345482,202.17508486215957 155.19557757629082,204.95868560916279 155.04887765506282,207.0 159.15647545224056,200.2265710575739 160.25672486238182,182.13349279481918 164.4376726206392,153.64945929148234 161.8704239972867,153.27833962102886" stroke="#4dd2ff" stroke-linecap="round" stroke-linejoin="round" stroke-width="0.5"><title>2023-01-09 1.4km</title></polyline><polyline fill="none" points="56.37654454540461,255.77889480625163 57.85729390702909,246.46595791980508 57.57201191992499,245.46941098800744 58.56370644655544,238.8030565645604 56.05050798872253,235.19512392533943 55.751641145092435,234.42200882258476 57.34106935898308,222.79148890340002 57.69427562865894,222.22459266989608 57.504087637295015,221.65769896350685 56.51239311072277,221.07362930316594 53.52372467436362,220.9018446194532 46.06563844013726,219.5962886066991 39.544907306320965,218.7545556522382 37.80604567064438,218.2563897933578 35.10265922144754,218.153321238613 34.396246681921184,217.75822588588926 32.00531193288043,215.50792358603212 29.79098031867761,214.21960049818153 25.62042936438229,213.53250018751714 21.436293553444557,213.01717739060405 22.006857527710963,216.69319235350122 21.24610556208063,213.0 29.56003775767749,213.97911496716551 31.720029945718125,215.26743561896728 35.1841683605453,218.20485550552257 38.077742801222485,218.23921169509413 39.68075587163912,218.73737748668646 50.12751054222463,220.28342167945812 50.58939566416666,220.42084873959539 50.87467765121255,220.9018446194532 51.17354449495906,220.50674072752008 51.66259932995308,220.489562325296 56.78409024130087,221.24541421886533 57.38182392856106,221.62334185041254 57.843709050503094,221.38284231859143 57.66710591566516,221.43437789424206 57.85729390702909,221.72641321757692 57.02861765876878,225.43703807564452 55.8467351407744,234.50791026852676 56.43088397150859,235.62463434707024 58.59087615960743,238.45943952113157 58.75389443797758,239.1638554596284 57.62635134602897,245.53813811179134 57.96597275923705,246.65495908123557 57.653521059139166,247.44533061908442 56.756920528190676,254.31833376261056 56.471638541144785,254.91973921869067 56.53956282371655,255.7617116375768 55.39843487535836,262.6179803835985 55.08598317520227,266.53601430062554 54.352400922682136,267.0" stroke="#4dd2ff" stroke-linecap="round" stroke-linejoin="round" stroke-width="0.5"><title>2023-01-08 10.8km</title></polyline></svg>