<?xml version="1.0" encoding="utf-8" ?>
<svg baseProfile="full" height="300mm" version="1.1" viewBox="0,0,200,300" width="200mm" xmlns="http://www.w3.org/2000/svg" xmlns:ev="http://www.w3.org/2001/xml-events" xmlns:xlink="http://www.w3.org/1999/xlink"><defs /><rect fill="#222222" height="300" width="200" x="0" y="0" /><text fill="#FFFFFF" style="font-size:12px; font-family:Arial; font-weight:bold;" x="10" y="20">Over 1km Runs</text><text fill="#FFFFFF" style="font-size:4px; font-family:Arial" x="10" y="280">ATHLETE</text><text fill="#FFFFFF" style="font-size:9px; font-family:Arial" x="10" y="290">Ergou</text><text fill="#FFFFFF" style="font-size:4px; font-family:Arial" x="120" y="280">STATISTICS</text><text fill="#FFFFFF" style="font-size:3px; font-family:Arial" x="120" y="285">Number: 10</text><text fill="#FFFFFF" style="font-size:3px; font-family:Arial" x="120" y="290">Weekly: 2.5</text><text fill="#FFFFFF" style="font-size:3px; font-family:Arial" x="141" y="285">Total: 52.5 km</text><text fill="#FFFFFF" style="font-size:3px; font-family:Arial" x="141" y="290">Avg: 5.3 km</text><text fill="#FFFFFF" style="font-size:3px; font-family:Arial" x="167" y="285">Min: 1.4 km</text><text fill="#FFFFFF" style="font-size:3px; font-family:Arial" x="167" y="290">Max: 10.8 km</text><polyline fill="none" points="40.19097284483723,85.24551909294678 42.462544578593224,70.44750516890781 42.16100850771181,69.20167740038596 43.64858645724598,59.46416502085049 39.38687665585894,53.10835829313146 41.37701472348999,38.36371348920511 42.16100850771181,34.982776747841854 42.02029167464934,33.965965549403336 40.53271372511517,33.33046134049073 36.210696709458716,33.0 40.81414739124011,33.48298215481918 41.779062818037346,33.88970493100351 42.02029167464934,34.37268936942564 39.58790070307441,53.36258643982001 43.40735760051757,58.90484541276237 43.78930329042487,60.09975750313606 42.22131572186481,69.45592729537748 42.72387583996169,70.70175674761413 41.899677246343344,74.0070585423382 40.43220170144923,84.58441459049936 39.92964158335235,87.0 39.22605741804,87.0" stroke="#4dd2ff" stroke-linecap="round" stroke-linejoin="round" stroke-width="0.5"><title>2023-01-23 5.3km</title></polyline><polyline fill="none" points="98.47092038718984,73.01906302152202 98.23012044804636,72.62310140545014 101.45683963096235,53.252290510514285 100.97523975302465,51.91223310359055 102.99795924080536,40.09570819424698 97.96524051507004,33.0 101.11971971625462,37.05031250452157 102.73307930771261,39.608442118391395 102.97387924673967,40.67433802771848 102.6849193200469,40.79615502408706 101.09563972242177,52.27770251518814 101.55315960664302,53.67867408390157 99.24148019193672,66.53147193609038 99.09700022847392,67.93253213039134 99.50636012491304,68.26756955456221 98.95252026524395,70.12551340297796 98.83212029573042,73.90236451907549 97.00204075907823,86.23848871648079 97.38732066145167,87.0" stroke="#4dd2ff" stroke-linecap="round" stroke-linejoin="round" stroke-width="0.5"><title>2023-01-20 3.6km</title></polyline><polyline fill="none" points="157.95258495234884,87.0 157.60277534625493,86.53150114731397 158.13777827331796,86.63561190490145 158.46701084368397,85.7246446844656 160.8333699440118,70.78539719438413 160.52471440914087,69.27592098218156 162.08856911887415,59.07425404450623 162.06799208326265,58.52775142417522 157.97316198796034,52.98474105534842 157.80854570271913,52.28211733145872 160.42182923085056,33.0 157.95258495234884,52.38620957324747 162.39722465374507,59.23039793514181 161.90337579802144,60.427505302999634 160.62759958743118,69.04169297521003 161.0597173362039,70.47309080034029 158.36412566539366,86.84383358911145" stroke="#4dd2ff" stroke-linecap="round" stroke-linejoin="round" stroke-width="0.5"><title>2023-01-19 4.8km</title></polyline><polyline fill="none" points="58.22864364867564,137.33342646082747 58.65421509568114,135.3149554959673 58.51235794671811,132.89282274746802 59.77134014421608,125.22296893937164 56.100786413415335,120.33418278497993 55.95892926445231,119.19049671848188 58.33503651036881,103.69544849847443 57.909465063363314,102.75368322664872 56.96966145117767,102.2379568895849 56.59728643496055,102.46218553491053 55.1077863703249,102.30522545138956 50.10732186748646,101.40831353561953 49.45123255322687,102.26037974050269 49.876804000348784,102.05857419146923 49.575357558671385,101.72223215489066 48.4936967974063,101.22893173404736 35.42510694428347,99.36785698091262 32.49930324591696,98.538227971585 29.289785249275155,98.62791739430395 28.013070908142254,97.97767017740989 24.041070735664107,94.41256690910086 21.860017069615424,93.24663780053379 20.210927712265402,93.0 21.877749213250354,93.1569512852293 23.91694573033601,94.18834913687897 28.988338807597756,98.42611626134021 32.676624682033435,98.47096093636355 34.680356911965646,99.16605494840769 55.65748282277491,102.30522545138956 57.35976861091331,102.28280259444728 58.015857925172895,102.75368322664872 58.299572223215364,103.96452527193469 56.065322126145475,120.08750473149121 59.71814371331129,125.08841326466063 59.78907228785101,125.78361875834526 58.370500797755085,134.26087486222968 58.76060795749072,135.87563941223198 58.13998293050099,138.16324942396022 56.84553644573316,147.0" stroke="#4dd2ff" stroke-linecap="round" stroke-linejoin="round" stroke-width="0.5"><title>2023-01-17 8.1km</title></polyline><polyline fill="none" points="126.9595050617354,125.97991749434732 117.119235095568,124.59694141789805 116.32958380191121,124.05912011454348 115.45894263219088,121.34442636265885 106.36782902129926,119.96148412377806 101.99437570304144,118.19440595322521 73.91113610798493,114.02006935072131 73.2227221596986,113.94324193155626 73.2429696287727,114.17372428241652 75.99662542180158,119.09074789308943 73.0,114.09689680096926 73.28346456692088,113.81519630231196 74.9640044993721,113.94324193155626 78.28458942635916,114.78834525530692 101.95388076477684,118.01513807417359 103.91788526438177,119.09074789308943 106.34758155222517,119.80782449821709 115.49943757022265,121.2675959734479 116.18785151850898,123.57252120331395 117.03824521927163,124.41766748041846 126.91901012358721,125.95430673455121 127.0,126.18480369768804" stroke="#4dd2ff" stroke-linecap="round" stroke-linejoin="round" stroke-width="0.5"><title>2023-01-16 5.5km</title></polyline><polyline fill="none" points="137.3049327355111,93.72375543939415 135.87892376689706,107.77979066380067 133.59192825108767,122.00679504213622 133.83408071752638,123.30019895225996 134.47982062783558,124.01497764879605 136.30941704043653,124.79783283587312 151.94170403596945,127.01026283367537 150.62331838568207,134.87305604625726 150.94618834089488,136.30268120381515 158.479820627952,137.32384700269904 160.3363228699891,138.1748216668493 161.57399103150237,137.69827550044283 174.97309417044744,139.84274035535054 179.27802690584213,141.27239374362398 180.91928251134232,141.1702753751306 181.51121076231357,142.7020552533795 181.13452914799564,145.833723131218 181.75336322863586,146.27624456066405 183.36771300446708,145.833723131218 187.0,145.90180330042494 175.6457399103092,140.48948731069686 160.36322869954165,138.44713416707236 155.60089686093852,137.5961585821351 155.03587443951983,136.88134131446714 151.51121076242998,136.5069140321575 150.65022421535105,136.03037102386588 150.56950672657695,134.46459320711438 151.53811659209896,130.03962160635274 151.51121076242998,127.6229391945526 134.50672645738814,125.07013086305233 133.18834080721717,123.19808787555667 133.0,121.6323898875853 133.99551569507457,113.90615329914726 134.5605381167261,111.76190941612003 135.28699551569298,110.94505940802628 134.91031390137505,109.7538245646283 135.31390134536196,108.9369810729404" stroke="#4dd2ff" stroke-linecap="round" stroke-linejoin="round" stroke-width="0.5"><title>2023-01-15 5.5km</title></polyline><polyline fill="none" points="42.339184633106925,206.37577667372534 42.576064089662395,206.52559007966192 42.31944467849098,205.75155545712914 42.891903365030885,201.2072885814996 44.80667897197418,190.67101199159515 44.31318010413088,189.62241071095923 45.852896571625024,179.46127326821443 41.964125493657775,174.09382182790432 41.72724603721872,173.1701366091729 44.431619832408614,155.0468689268455 43.85916114586871,154.32297366621788 42.812943546217866,154.04839344715583 35.41046052984893,153.07488504896173 34.522162567824125,153.19969353135093 34.64060229610186,153.79877542020404 34.50242261309177,153.3744255483034 33.910223971819505,153.574119484314 35.153841118561104,154.09831709298305 35.153841118561104,153.574119484314 34.85774179780856,153.5241959800478 35.52890025812667,153.0 40.99686771281995,153.8986225905246 43.30644241394475,153.8986225905246 44.01708078361116,154.44778299162863 44.47109974187333,155.4712226394331 41.9049056294607,173.6694253431342 46.089776028180495,180.0604403136531 45.69497693399899,180.95919452540693 44.47109974187333,189.52254423277918 44.925118700251915,191.2202817046782 44.55005956068635,191.49491717357887 43.48410200641956,197.73674247422605 42.753723682137206,204.32833897159435 42.27996476890985,206.6004968281486 41.56932639947627,206.6004968281486 41.1547873505624,207.0 41.6482862184057,206.32583889877424" stroke="#4dd2ff" stroke-linecap="round" stroke-linejoin="round" stroke-width="0.5"><title>2023-01-15 6.0km</title></polyline><polyline fill="none" points="104.52131345216185,156.63532839354593 105.50268381368369,156.98999565723352 103.82033462263644,167.09809329349082 104.45121556939557,169.40347071178257 100.17524470761418,194.49714139068965 100.59583200560883,200.9702228269307 96.74044844182208,203.0097000777023 95.12819713354111,207.0 95.75907808030024,204.1624508947134 95.54878443153575,203.3643924210919 94.28702253755182,204.07377768296283 95.19829501677305,204.33979735407047 96.17966537829489,201.41358690720517 96.95074209105223,202.83235397806857 95.82917596353218,204.42847060179338 100.17524470761418,198.31004464032594 99.82475529285148,194.3197975930525 105.71297746291384,154.3299958553398 104.80170498415828,153.0 102.8389642611146,153.0" stroke="#4dd2ff" stroke-linecap="round" stroke-linejoin="round" stroke-width="0.5"><title>2023-01-12 1.5km</title></polyline><polyline fill="none" points="164.14427277818322,153.0 164.95112234540284,154.29891919752117 160.18337490176782,192.9892825083807 158.71637568809092,196.97906034486368 159.3765253345482,202.17508486215957 155.19557757629082,204.95868560916279 155.04887765506282,207.0 159.15647545224056,200.2265710575739 160.25672486238182,182.13349279481918 164.4376726206392,153.64945929148234 161.8704239972867,153.27833962102886" stroke="#4dd2ff" stroke-linecap="round" stroke-linejoin="round" stroke-width="0.5"><title>2023-01-09 1.4km</title></polyline><polyline fill="none" points="56.37654454540461,255.77889480625163 57.85729390702909,246.46595791980508 57.57201191992499,245.46941098800744 58.56370644655544,238.8030565645604 56.05050798872253,235.19512392533943 55.751641145092435,234.42200882258476 57.34106935898308,222.79148890340002 57.69427562865894,222.22459266989608 57.504087637295015,221.65769896350685 56.51239311072277,221.07362930316594 53.52372467436362,220.9018446194532 46.06563844013726,219.5962886066991 39.544907306320965,218.7545556522382 37.80604567064438,218.2563897933578 35.10265922144754,218.153321238613 34.396246681921184,217.75822588588926 32.00531193288043,215.50792358603212 29.79098031867761,214.21960049818153 25.62042936438229,213.53250018751714 21.436293553444557,213.01717739060405 22.006857527710963,216.69319235350122 21.24610556208063,213.0 29.56003775767749,213.97911496716551 31.720029945718125,215.26743561896728 35.1841683605453,218.20485550552257 38.077742801222485,218.23921169509413 39.68075587163912,218.73737748668646 50.12751054222463,220.28342167945812 50.58939566416666,220.42084873959539 50.87467765121255,220.9018446194532 51.17354449495906,220.50674072752008 51.66259932995308,220.489562325296 56.78409024130087,221.24541421886533 57.38182392856106,221.62334185041254 57.843709050503094,221.38284231859143 57.66710591566516,221.43437789424206 57.85729390702909,221.72641321757692 57.02861765876878,225.43703807564452 55.8467351407744,234.50791026852676 56.43088397150859,235.62463434707024 58.59087615960743,238.45943952113157 58.75389443797758,239.1638554596284 57.62635134602897,245.53813811179134 57.96597275923705,246.65495908123557 57.653521059139166,247.44533061908442 56.756920528190676,254.31833376261056 56.471638541144785,254.91973921869067 56.53956282371655,255.7617116375768 55.39843487535836,262.6179803835985 55.08598317520227,266.53601430062554 54.352400922682136,267.0" stroke="#4dd2ff" stroke-linecap="round" stroke-linejoin="round" stroke-width="0.5"><title>2023-01-08 10.8km</title></polyline></svg>