<?xml version="1.0" encoding="utf-8" ?>
<svg baseProfile="full" height="300mm" version="1.1" viewBox="0,0,200,300" width="200mm" xmlns="http://www.w3.org/2000/svg" xmlns:ev="http://www.w3.org/2001/xml-events" xmlns:xlink="http://www.w3.org/1999/xlink"><defs /><rect fill="#222222" height="300" width="200" x="0" y="0" /><text fill="#FFFFFF" style="font-size:12px; font-family:Arial; font-weight:bold;" x="10" y="20">Over 1km Runs</text><text fill="#FFFFFF" style="font-size:4px; font-family:Arial" x="10" y="280">ATHLETE</text><text fill="#FFFFFF" style="font-size:9px; font-family:Arial" x="10" y="290">Ergou</text><text fill="#FFFFFF" style="font-size:4px; font-family:Arial" x="120" y="280">STATISTICS</text><text fill="#FFFFFF" style="font-size:3px; font-family:Arial" x="120" y="285">Number: 8</text><text fill="#FFFFFF" style="font-size:3px; font-family:Arial" x="120" y="290">Weekly: 2.7</text><text fill="#FFFFFF" style="font-size:3px; font-family:Arial" x="141" y="285">Total: 43.6 km</text><text fill="#FFFFFF" style="font-size:3px; font-family:Arial" x="141" y="290">Avg: 5.5 km</text><text fill="#FFFFFF" style="font-size:3px; font-family:Arial" x="167" y="285">Min: 1.4 km</text><text fill="#FFFFFF" style="font-size:3px; font-family:Arial" x="167" y="290">Max: 10.8 km</text><polyline fill="none" points="37.95258495234884,87.0 37.60277534625493,86.53150114731397 38.13777827331796,86.63561190490145 38.467010843683966,85.7246446844656 40.83336994401179,70.78539719438413 40.52471440914087,69.27592098218156 42.08856911887415,59.07425404450623 42.06799208326265,58.52775142417522 37.97316198796034,52.98474105534842 37.80854570271913,52.28211733145872 40.42182923085056,33.0 37.95258495234884,52.38620957324747 42.39722465374507,59.23039793514181 41.90337579802144,60.427505302999634 40.62759958743118,69.04169297521003 41.0597173362039,70.47309080034029 38.36412566539366,86.84383358911145" stroke="#4dd2ff" stroke-linecap="round" stroke-linejoin="round" stroke-width="0.5"><title>2023-01-19 4.8km</title></polyline><polyline fill="none" points="178.22864364867564,77.33342646082747 178.65421509568114,75.3149554959673 178.5123579467181,72.89282274746802 179.77134014421608,65.22296893937164 176.10078641341534,60.33418278497993 175.9589292644523,59.19049671848188 178.3350365103688,43.695448498474434 177.9094650633633,42.75368322664872 176.96966145117767,42.23795688958489 176.59728643496055,42.46218553491053 175.1077863703249,42.30522545138956 170.10732186748646,41.40831353561953 169.45123255322687,42.260379740502685 169.87680400034878,42.05857419146923 169.57535755867139,41.72223215489066 168.4936967974063,41.228931734047364 155.42510694428347,39.36785698091262 152.49930324591696,38.538227971585 149.28978524927516,38.62791739430395 148.01307090814225,37.97767017740989 144.0410707356641,34.41256690910086 141.86001706961542,33.24663780053379 140.2109277122654,33.0 141.87774921325035,33.1569512852293 143.916945730336,34.18834913687897 148.98833880759776,38.42611626134021 152.67662468203343,38.470960936363554 154.68035691196565,39.16605494840769 175.6574828227749,42.30522545138956 177.3597686109133,42.282802594447276 178.0158579251729,42.75368322664872 178.29957222321536,43.96452527193469 176.06532212614547,60.08750473149121 179.7181437133113,65.08841326466063 179.789072287851,65.78361875834526 178.37050079775508,74.26087486222968 178.76060795749072,75.87563941223198 178.139982930501,78.16324942396022 176.84553644573316,87.0" stroke="#4dd2ff" stroke-linecap="round" stroke-linejoin="round" stroke-width="0.5"><title>2023-01-17 8.1km</title></polyline><polyline fill="none" points="66.9595050617354,125.97991749434732 57.119235095568,124.59694141789805 56.32958380191121,124.05912011454348 55.45894263219088,121.34442636265885 46.36782902129926,119.96148412377806 41.99437570304144,118.19440595322521 13.91113610798493,114.02006935072131 13.222722159698606,113.94324193155626 13.242969628772698,114.17372428241652 15.996625421801582,119.09074789308943 13.0,114.09689680096926 13.283464566920884,113.81519630231196 14.964004499372095,113.94324193155626 18.28458942635916,114.78834525530692 41.95388076477684,118.01513807417359 43.917885264381766,119.09074789308943 46.347581552225165,119.80782449821709 55.49943757022265,121.2675959734479 56.18785151850898,123.57252120331395 57.03824521927163,124.41766748041846 66.91901012358721,125.95430673455121 67.0,126.18480369768804" stroke="#4dd2ff" stroke-linecap="round" stroke-linejoin="round" stroke-width="0.5"><title>2023-01-16 5.5km</title></polyline><polyline fill="none" points="137.3049327355111,93.72375543939415 135.87892376689706,107.77979066380067 133.59192825108767,122.00679504213622 133.83408071752638,123.30019895225996 134.47982062783558,124.01497764879605 136.30941704043653,124.79783283587312 151.94170403596945,127.01026283367537 150.62331838568207,134.87305604625726 150.94618834089488,136.30268120381515 158.479820627952,137.32384700269904 160.3363228699891,138.1748216668493 161.57399103150237,137.69827550044283 174.97309417044744,139.84274035535054 179.27802690584213,141.27239374362398 180.91928251134232,141.1702753751306 181.51121076231357,142.7020552533795 181.13452914799564,145.833723131218 181.75336322863586,146.27624456066405 183.36771300446708,145.833723131218 187.0,145.90180330042494 175.6457399103092,140.48948731069686 160.36322869954165,138.44713416707236 155.60089686093852,137.5961585821351 155.03587443951983,136.88134131446714 151.51121076242998,136.5069140321575 150.65022421535105,136.03037102386588 150.56950672657695,134.46459320711438 151.53811659209896,130.03962160635274 151.51121076242998,127.6229391945526 134.50672645738814,125.07013086305233 133.18834080721717,123.19808787555667 133.0,121.6323898875853 133.99551569507457,113.90615329914726 134.5605381167261,111.76190941612003 135.28699551569298,110.94505940802628 134.91031390137505,109.7538245646283 135.31390134536196,108.9369810729404" stroke="#4dd2ff" stroke-linecap="round" stroke-linejoin="round" stroke-width="0.5"><title>2023-01-15 5.5km</title></polyline><polyline fill="none" points="42.339184633106925,206.37577667372534 42.576064089662395,206.52559007966192 42.31944467849098,205.75155545712914 42.891903365030885,201.2072885814996 44.80667897197418,190.67101199159515 44.31318010413088,189.62241071095923 45.852896571625024,179.46127326821443 41.964125493657775,174.09382182790432 41.72724603721872,173.1701366091729 44.431619832408614,155.0468689268455 43.85916114586871,154.32297366621788 42.812943546217866,154.04839344715583 35.41046052984893,153.07488504896173 34.522162567824125,153.19969353135093 34.64060229610186,153.79877542020404 34.50242261309177,153.3744255483034 33.910223971819505,153.574119484314 35.153841118561104,154.09831709298305 35.153841118561104,153.574119484314 34.85774179780856,153.5241959800478 35.52890025812667,153.0 40.99686771281995,153.8986225905246 43.30644241394475,153.8986225905246 44.01708078361116,154.44778299162863 44.47109974187333,155.4712226394331 41.9049056294607,173.6694253431342 46.089776028180495,180.0604403136531 45.69497693399899,180.95919452540693 44.47109974187333,189.52254423277918 44.925118700251915,191.2202817046782 44.55005956068635,191.49491717357887 43.48410200641956,197.73674247422605 42.753723682137206,204.32833897159435 42.27996476890985,206.6004968281486 41.56932639947627,206.6004968281486 41.1547873505624,207.0 41.6482862184057,206.32583889877424" stroke="#4dd2ff" stroke-linecap="round" stroke-linejoin="round" stroke-width="0.5"><title>2023-01-15 6.0km</title></polyline><polyline fill="none" points="164.52131345216185,156.63532839354593 165.5026838136837,156.98999565723352 163.82033462263644,167.09809329349082 164.45121556939557,169.40347071178257 160.17524470761418,194.49714139068965 160.59583200560883,200.9702228269307 156.74044844182208,203.0097000777023 155.1281971335411,207.0 155.75907808030024,204.1624508947134 155.54878443153575,203.3643924210919 154.28702253755182,204.07377768296283 155.19829501677305,204.33979735407047 156.17966537829489,201.41358690720517 156.95074209105223,202.83235397806857 155.82917596353218,204.42847060179338 160.17524470761418,198.31004464032594 159.82475529285148,194.3197975930525 165.71297746291384,154.3299958553398 164.80170498415828,153.0 162.8389642611146,153.0" stroke="#4dd2ff" stroke-linecap="round" stroke-linejoin="round" stroke-width="0.5"><title>2023-01-12 1.5km</title></polyline><polyline fill="none" points="44.14427277818322,213.0 44.95112234540284,214.29891919752117 40.18337490176782,252.9892825083807 38.71637568809092,256.9790603448637 39.376525334548205,262.17508486215957 35.195577576290816,264.9586856091628 35.048877655062824,267.0 39.15647545224056,260.2265710575739 40.256724862381816,242.13349279481918 44.437672620639205,213.64945929148234 41.87042399728671,213.27833962102886" stroke="#4dd2ff" stroke-linecap="round" stroke-linejoin="round" stroke-width="0.5"><title>2023-01-09 1.4km</title></polyline><polyline fill="none" points="176.3765445454046,255.77889480625163 177.8572939070291,246.46595791980508 177.572011919925,245.46941098800744 178.56370644655544,238.8030565645604 176.05050798872253,235.19512392533943 175.75164114509244,234.42200882258476 177.34106935898308,222.79148890340002 177.69427562865894,222.22459266989608 177.50408763729502,221.65769896350685 176.51239311072277,221.07362930316594 173.52372467436362,220.9018446194532 166.06563844013726,219.5962886066991 159.54490730632097,218.7545556522382 157.80604567064438,218.2563897933578 155.10265922144754,218.153321238613 154.39624668192118,217.75822588588926 152.00531193288043,215.50792358603212 149.7909803186776,214.21960049818153 145.6204293643823,213.53250018751714 141.43629355344456,213.01717739060405 142.00685752771096,216.69319235350122 141.24610556208063,213.0 149.5600377576775,213.97911496716551 151.72002994571812,215.26743561896728 155.1841683605453,218.20485550552257 158.07774280122248,218.23921169509413 159.68075587163912,218.73737748668646 170.12751054222463,220.28342167945812 170.58939566416666,220.42084873959539 170.87467765121255,220.9018446194532 171.17354449495906,220.50674072752008 171.66259932995308,220.489562325296 176.78409024130087,221.24541421886533 177.38182392856106,221.62334185041254 177.8437090505031,221.38284231859143 177.66710591566516,221.43437789424206 177.8572939070291,221.72641321757692 177.02861765876878,225.43703807564452 175.8467351407744,234.50791026852676 176.4308839715086,235.62463434707024 178.59087615960743,238.45943952113157 178.75389443797758,239.1638554596284 177.62635134602897,245.53813811179134 177.96597275923705,246.65495908123557 177.65352105913917,247.44533061908442 176.75692052819068,254.31833376261056 176.47163854114478,254.91973921869067 176.53956282371655,255.7617116375768 175.39843487535836,262.6179803835985 175.08598317520227,266.53601430062554 174.35240092268214,267.0" stroke="#4dd2ff" stroke-linecap="round" stroke-linejoin="round" stroke-width="0.5"><title>2023-01-08 10.8km</title></polyline></svg>