<?xml version="1.0" encoding="utf-8" ?>
<svg baseProfile="full" height="300mm" version="1.1" viewBox="0,0,200,300" width="200mm" xmlns="http://www.w3.org/2000/svg" xmlns:ev="http://www.w3.org/2001/xml-events" xmlns:xlink="http://www.w3.org/1999/xlink"><defs /><rect fill="#222222" height="300" width="200" x="0" y="0" /><text fill="#FFFFFF" style="font-size:12px; font-family:Arial; font-weight:bold;" x="10" y="20">Over 1km Runs</text><text fill="#FFFFFF" style="font-size:4px; font-family:Arial" x="10" y="280">ATHLETE</text><text fill="#FFFFFF" style="font-size:9px; font-family:Arial" x="10" y="290">Ergou</text><text fill="#FFFFFF" style="font-size:4px; font-family:Arial" x="120" y="280">STATISTICS</text><text fill="#FFFFFF" style="font-size:3px; font-family:Arial" x="120" y="285">Number: 2</text><text fill="#FFFFFF" style="font-size:3px; font-family:Arial" x="120" y="290">Weekly: 1.0</text><text fill="#FFFFFF" style="font-size:3px; font-family:Arial" x="141" y="285">Total: 12.2 km</text><text fill="#FFFFFF" style="font-size:3px; font-family:Arial" x="141" y="290">Avg: 6.1 km</text><text fill="#FFFFFF" style="font-size:3px; font-family:Arial" x="167" y="285">Min: 1.4 km</text><text fill="#FFFFFF" style="font-size:3px; font-family:Arial" x="167" y="290">Max: 10.8 km</text><polyline fill="none" points="108.28854555636644,36.0 109.90224469080567,38.597838395042345 100.36674980353564,115.97856501676142 97.43275137618184,123.95812068972737 98.75305066909641,134.35016972431913 90.39115515258163,139.91737121832557 90.09775531012565,144.0 98.31295090448111,130.45314211514778 100.51344972476363,94.26698558963835 108.87534524127841,37.29891858296469 103.74084799457341,36.556679242057726" stroke="#4dd2ff" stroke-linecap="round" stroke-linejoin="round" stroke-width="0.5"><title>2023-01-09 1.4km</title></polyline><polyline fill="none" points="132.75308909080923,241.55778961250326 135.71458781405818,222.93191583961016 135.14402383984998,220.93882197601488 137.1274128931109,207.60611312912079 132.10101597744506,200.39024785067886 131.50328229018487,198.84401764516952 134.68213871796615,175.58297780680005 135.38855125731789,174.44918533979217 135.00817527459003,173.3153979270137 133.02478622144554,172.1472586063319 127.04744934872724,171.80368923890637 112.13127688027453,169.19257721339818 99.08981461264193,167.5091113044764 95.61209134128876,166.51277958671562 90.20531844289508,166.30664247722598 88.79249336384237,165.51645177177852 84.01062386576086,161.01584717206424 79.58196063735522,158.43920099636307 71.24085872876458,157.0650003750343 62.872587106889114,156.0343547812081 64.01371505542193,163.38638470700243 62.49221112416126,156.0 79.12007551535498,157.95822993433103 83.44005989143625,160.53487123793457 90.3683367210906,166.40971101104515 96.15548560244497,166.47842339018825 99.36151174327824,167.4747549733729 120.25502108444925,170.56684335891623 121.17879132833332,170.84169747919077 121.7493553024251,171.80368923890637 122.34708898991812,171.01348145504016 123.32519865990616,170.97912465059198 133.56818048260175,172.49082843773067 134.76364785712212,173.2466837008251 135.6874181010062,172.76568463718286 135.33421183133032,172.86875578848412 135.71458781405818,173.45282643515384 134.05723531753756,180.87407615128905 131.6934702815488,199.01582053705351 132.86176794301718,201.24926869414048 137.18175231921487,206.91887904226314 137.50778887595516,208.3277109192568 135.25270269205794,221.07627622358268 135.9319455184741,223.30991816247115 135.30704211827833,224.89066123816883 133.51384105638135,238.63666752522113 132.94327708228957,239.83947843738133 133.0791256474331,241.52342327515362 130.79686975071672,255.23596076719696 130.17196635040455,263.0720286012511 128.70480184536427,264.0" stroke="#4dd2ff" stroke-linecap="round" stroke-linejoin="round" stroke-width="0.5"><title>2023-01-08 10.8km</title></polyline></svg>