<?xml version="1.0" encoding="utf-8" ?>
<svg baseProfile="full" height="300mm" version="1.1" viewBox="0,0,200,300" width="200mm" xmlns="http://www.w3.org/2000/svg" xmlns:ev="http://www.w3.org/2001/xml-events" xmlns:xlink="http://www.w3.org/1999/xlink"><defs /><rect fill="#222222" height="300" width="200" x="0" y="0" /><text fill="#FFFFFF" style="font-size:12px; font-family:Arial; font-weight:bold;" x="10" y="20">Over 1km Runs</text><text fill="#FFFFFF" style="font-size:4px; font-family:Arial" x="10" y="280">ATHLETE</text><text fill="#FFFFFF" style="font-size:9px; font-family:Arial" x="10" y="290">Ergou</text><text fill="#FFFFFF" style="font-size:4px; font-family:Arial" x="120" y="280">STATISTICS</text><text fill="#FFFFFF" style="font-size:3px; font-family:Arial" x="120" y="285">Number: 11</text><text fill="#FFFFFF" style="font-size:3px; font-family:Arial" x="120" y="290">Weekly: 2.8</text><text fill="#FFFFFF" style="font-size:3px; font-family:Arial" x="141" y="285">Total: 62.7 km</text><text fill="#FFFFFF" style="font-size:3px; font-family:Arial" x="141" y="290">Avg: 5.7 km</text><text fill="#FFFFFF" style="font-size:3px; font-family:Arial" x="167" y="285">Min: 1.4 km</text><text fill="#FFFFFF" style="font-size:3px; font-family:Arial" x="167" y="290">Max: 10.8 km</text><polyline fill="none" points="59.530503457877785,85.97977831031312 61.620999824721366,73.4878157893836 61.34116960235406,72.38440779634402 62.59217530209571,64.51504790733452 59.431739849969745,59.8935477193445 59.086067222524434,58.915139786258806 61.04487877874635,44.61443933789269 61.357630203594454,44.11487554301857 61.20948479173239,43.594498312304495 59.95847909199074,42.97004795522662 54.197268632473424,42.137451415503165 53.5882263839012,42.11663655968732 52.97918413532898,42.74108345829882 53.143790148431435,42.59537895562244 52.699353913078085,41.97093264746945 39.30042444425635,39.972721466445364 37.62144311028533,39.389914752944605 34.08241382811684,39.34828578631277 33.17708075593691,38.8695534785511 31.82731144828722,37.39173704080167 29.440524257835932,35.49765500545618 26.526997825480066,34.248822442576056 17.407824698020704,33.08325451469864 17.967485142638907,36.03881892567733 17.341982292709872,33.0 27.695700518670492,34.41533286622143 30.609226951026358,36.246959401032655 33.34168676903937,38.84873906415305 34.23055923986249,39.28584235752351 37.55560070509091,39.32747130727512 39.4156486535212,39.931092342420015 58.7733157974435,42.845158187439665 60.402915327460505,42.865973141713766 61.11072118394077,43.303087830747245 61.423472608905286,44.44791789294686 60.83089096157346,46.94575846297084 59.250673235510476,58.93595691159135 59.5469640592346,59.85191321265302 62.65801770729013,64.45259427800192 61.407012007548474,72.40522674191743 61.78560583770741,73.30044406358502 60.00786089594476,83.27310045305057 60.3699941248633,83.50212519889465 60.56752134056296,83.29392087040469 59.92555788939353,83.52294564718613 59.56342466047499,86.79179094303981 58.839158202754334,87.0 58.707473392249085,86.60440303239739" stroke="#4dd2ff" stroke-linecap="round" stroke-linejoin="round" stroke-width="0.5"><title>2023-01-26 10.1km</title></polyline><polyline fill="none" points="100.19097284483723,85.24551909294678 102.46254457859322,70.44750516890781 102.16100850771181,69.20167740038596 103.64858645724598,59.46416502085049 99.38687665585894,53.10835829313146 101.37701472348999,38.36371348920511 102.16100850771181,34.982776747841854 102.02029167464934,33.965965549403336 100.53271372511517,33.33046134049073 96.21069670945872,33.0 100.81414739124011,33.48298215481918 101.77906281803735,33.88970493100351 102.02029167464934,34.37268936942564 99.58790070307441,53.36258643982001 103.40735760051757,58.90484541276237 103.78930329042487,60.09975750313606 102.22131572186481,69.45592729537748 102.72387583996169,70.70175674761413 101.89967724634334,74.0070585423382 100.43220170144923,84.58441459049936 99.92964158335235,87.0 99.22605741804,87.0" stroke="#4dd2ff" stroke-linecap="round" stroke-linejoin="round" stroke-width="0.5"><title>2023-01-23 5.3km</title></polyline><polyline fill="none" points="158.47092038718984,73.01906302152202 158.23012044804636,72.62310140545014 161.45683963096235,53.252290510514285 160.97523975302465,51.91223310359055 162.99795924080536,40.09570819424698 157.96524051507004,33.0 161.11971971625462,37.05031250452157 162.73307930771261,39.608442118391395 162.97387924673967,40.67433802771848 162.6849193200469,40.79615502408706 161.09563972242177,52.27770251518814 161.55315960664302,53.67867408390157 159.24148019193672,66.53147193609038 159.09700022847392,67.93253213039134 159.50636012491304,68.26756955456221 158.95252026524395,70.12551340297796 158.83212029573042,73.90236451907549 157.00204075907823,86.23848871648079 157.38732066145167,87.0" stroke="#4dd2ff" stroke-linecap="round" stroke-linejoin="round" stroke-width="0.5"><title>2023-01-20 3.6km</title></polyline><polyline fill="none" points="37.95258495234884,147.0 37.60277534625493,146.53150114731397 38.13777827331796,146.63561190490145 38.467010843683966,145.7246446844656 40.83336994401179,130.78539719438413 40.52471440914087,129.27592098218156 42.08856911887415,119.07425404450623 42.06799208326265,118.52775142417522 37.97316198796034,112.98474105534842 37.80854570271913,112.28211733145872 40.42182923085056,93.0 37.95258495234884,112.38620957324747 42.39722465374507,119.23039793514181 41.90337579802144,120.42750530299963 40.62759958743118,129.04169297521003 41.0597173362039,130.4730908003403 38.36412566539366,146.84383358911145" stroke="#4dd2ff" stroke-linecap="round" stroke-linejoin="round" stroke-width="0.5"><title>2023-01-19 4.8km</title></polyline><polyline fill="none" points="118.22864364867564,137.33342646082747 118.65421509568114,135.3149554959673 118.51235794671811,132.89282274746802 119.77134014421608,125.22296893937164 116.10078641341534,120.33418278497993 115.95892926445231,119.19049671848188 118.33503651036881,103.69544849847443 117.90946506336331,102.75368322664872 116.96966145117767,102.2379568895849 116.59728643496055,102.46218553491053 115.1077863703249,102.30522545138956 110.10732186748646,101.40831353561953 109.45123255322687,102.26037974050269 109.87680400034878,102.05857419146923 109.57535755867139,101.72223215489066 108.4936967974063,101.22893173404736 95.42510694428347,99.36785698091262 92.49930324591696,98.538227971585 89.28978524927516,98.62791739430395 88.01307090814225,97.97767017740989 84.0410707356641,94.41256690910086 81.86001706961542,93.24663780053379 80.2109277122654,93.0 81.87774921325035,93.1569512852293 83.91694573033601,94.18834913687897 88.98833880759776,98.42611626134021 92.67662468203343,98.47096093636355 94.68035691196565,99.16605494840769 115.65748282277491,102.30522545138956 117.3597686109133,102.28280259444728 118.0158579251729,102.75368322664872 118.29957222321536,103.96452527193469 116.06532212614547,120.08750473149121 119.71814371331129,125.08841326466063 119.78907228785101,125.78361875834526 118.37050079775508,134.26087486222968 118.76060795749072,135.87563941223198 118.13998293050099,138.16324942396022 116.84553644573316,147.0" stroke="#4dd2ff" stroke-linecap="round" stroke-linejoin="round" stroke-width="0.5"><title>2023-01-17 8.1km</title></polyline><polyline fill="none" points="186.9595050617354,125.97991749434732 177.119235095568,124.59694141789805 176.3295838019112,124.05912011454348 175.45894263219088,121.34442636265885 166.36782902129926,119.96148412377806 161.99437570304144,118.19440595322521 133.91113610798493,114.02006935072131 133.2227221596986,113.94324193155626 133.2429696287727,114.17372428241652 135.99662542180158,119.09074789308943 133.0,114.09689680096926 133.28346456692088,113.81519630231196 134.9640044993721,113.94324193155626 138.28458942635916,114.78834525530692 161.95388076477684,118.01513807417359 163.91788526438177,119.09074789308943 166.34758155222517,119.80782449821709 175.49943757022265,121.2675959734479 176.18785151850898,123.57252120331395 177.03824521927163,124.41766748041846 186.9190101235872,125.95430673455121 187.0,126.18480369768804" stroke="#4dd2ff" stroke-linecap="round" stroke-linejoin="round" stroke-width="0.5"><title>2023-01-16 5.5km</title></polyline><polyline fill="none" points="17.304932735511102,153.72375543939415 15.87892376689706,167.77979066380067 13.591928251087666,182.00679504213622 13.834080717526376,183.30019895225996 14.47982062783558,184.01497764879605 16.30941704043653,184.79783283587312 31.94170403596945,187.01026283367537 30.62331838568207,194.87305604625726 30.946188340894878,196.30268120381515 38.479820627951995,197.32384700269904 40.33632286998909,198.1748216668493 41.57399103150237,197.69827550044283 54.97309417044744,199.84274035535054 59.278026905842125,201.27239374362398 60.91928251134232,201.1702753751306 61.51121076231357,202.7020552533795 61.134529147995636,205.833723131218 61.75336322863586,206.27624456066405 63.36771300446708,205.833723131218 67.0,205.90180330042494 55.6457399103092,200.48948731069686 40.36322869954165,198.44713416707236 35.60089686093852,197.5961585821351 35.03587443951983,196.88134131446714 31.511210762429982,196.5069140321575 30.650224215351045,196.03037102386588 30.569506726576947,194.46459320711438 31.53811659209896,190.03962160635274 31.511210762429982,187.6229391945526 14.50672645738814,185.07013086305233 13.188340807217173,183.19808787555667 13.0,181.6323898875853 13.995515695074573,173.90615329914726 14.560538116726093,171.76190941612003 15.286995515692979,170.94505940802628 14.910313901375048,169.7538245646283 15.313901345361955,168.9369810729404" stroke="#4dd2ff" stroke-linecap="round" stroke-linejoin="round" stroke-width="0.5"><title>2023-01-15 5.5km</title></polyline><polyline fill="none" points="102.33918463310692,206.37577667372534 102.5760640896624,206.52559007966192 102.31944467849098,205.75155545712914 102.89190336503088,201.2072885814996 104.80667897197418,190.67101199159515 104.31318010413088,189.62241071095923 105.85289657162502,179.46127326821443 101.96412549365778,174.09382182790432 101.72724603721872,173.1701366091729 104.43161983240861,155.0468689268455 103.85916114586871,154.32297366621788 102.81294354621787,154.04839344715583 95.41046052984893,153.07488504896173 94.52216256782413,153.19969353135093 94.64060229610186,153.79877542020404 94.50242261309177,153.3744255483034 93.9102239718195,153.574119484314 95.1538411185611,154.09831709298305 95.1538411185611,153.574119484314 94.85774179780856,153.5241959800478 95.52890025812667,153.0 100.99686771281995,153.8986225905246 103.30644241394475,153.8986225905246 104.01708078361116,154.44778299162863 104.47109974187333,155.4712226394331 101.9049056294607,173.6694253431342 106.0897760281805,180.0604403136531 105.69497693399899,180.95919452540693 104.47109974187333,189.52254423277918 104.92511870025191,191.2202817046782 104.55005956068635,191.49491717357887 103.48410200641956,197.73674247422605 102.7537236821372,204.32833897159435 102.27996476890985,206.6004968281486 101.56932639947627,206.6004968281486 101.1547873505624,207.0 101.6482862184057,206.32583889877424" stroke="#4dd2ff" stroke-linecap="round" stroke-linejoin="round" stroke-width="0.5"><title>2023-01-15 6.0km</title></polyline><polyline fill="none" points="164.52131345216185,156.63532839354593 165.5026838136837,156.98999565723352 163.82033462263644,167.09809329349082 164.45121556939557,169.40347071178257 160.17524470761418,194.49714139068965 160.59583200560883,200.9702228269307 156.74044844182208,203.0097000777023 155.1281971335411,207.0 155.75907808030024,204.1624508947134 155.54878443153575,203.3643924210919 154.28702253755182,204.07377768296283 155.19829501677305,204.33979735407047 156.17966537829489,201.41358690720517 156.95074209105223,202.83235397806857 155.82917596353218,204.42847060179338 160.17524470761418,198.31004464032594 159.82475529285148,194.3197975930525 165.71297746291384,154.3299958553398 164.80170498415828,153.0 162.8389642611146,153.0" stroke="#4dd2ff" stroke-linecap="round" stroke-linejoin="round" stroke-width="0.5"><title>2023-01-12 1.5km</title></polyline><polyline fill="none" points="44.14427277818322,213.0 44.95112234540284,214.29891919752117 40.18337490176782,252.9892825083807 38.71637568809092,256.9790603448637 39.376525334548205,262.17508486215957 35.195577576290816,264.9586856091628 35.048877655062824,267.0 39.15647545224056,260.2265710575739 40.256724862381816,242.13349279481918 44.437672620639205,213.64945929148234 41.87042399728671,213.27833962102886" stroke="#4dd2ff" stroke-linecap="round" stroke-linejoin="round" stroke-width="0.5"><title>2023-01-09 1.4km</title></polyline><polyline fill="none" points="116.37654454540461,255.77889480625163 117.85729390702909,246.46595791980508 117.57201191992499,245.46941098800744 118.56370644655544,238.8030565645604 116.05050798872253,235.19512392533943 115.75164114509244,234.42200882258476 117.34106935898308,222.79148890340002 117.69427562865894,222.22459266989608 117.50408763729502,221.65769896350685 116.51239311072277,221.07362930316594 113.52372467436362,220.9018446194532 106.06563844013726,219.5962886066991 99.54490730632097,218.7545556522382 97.80604567064438,218.2563897933578 95.10265922144754,218.153321238613 94.39624668192118,217.75822588588926 92.00531193288043,215.50792358603212 89.79098031867761,214.21960049818153 85.62042936438229,213.53250018751714 81.43629355344456,213.01717739060405 82.00685752771096,216.69319235350122 81.24610556208063,213.0 89.56003775767749,213.97911496716551 91.72002994571812,215.26743561896728 95.1841683605453,218.20485550552257 98.07774280122248,218.23921169509413 99.68075587163912,218.73737748668646 110.12751054222463,220.28342167945812 110.58939566416666,220.42084873959539 110.87467765121255,220.9018446194532 111.17354449495906,220.50674072752008 111.66259932995308,220.489562325296 116.78409024130087,221.24541421886533 117.38182392856106,221.62334185041254 117.8437090505031,221.38284231859143 117.66710591566516,221.43437789424206 117.85729390702909,221.72641321757692 117.02861765876878,225.43703807564452 115.8467351407744,234.50791026852676 116.43088397150859,235.62463434707024 118.59087615960743,238.45943952113157 118.75389443797758,239.1638554596284 117.62635134602897,245.53813811179134 117.96597275923705,246.65495908123557 117.65352105913917,247.44533061908442 116.75692052819068,254.31833376261056 116.47163854114478,254.91973921869067 116.53956282371655,255.7617116375768 115.39843487535836,262.6179803835985 115.08598317520227,266.53601430062554 114.35240092268214,267.0" stroke="#4dd2ff" stroke-linecap="round" stroke-linejoin="round" stroke-width="0.5"><title>2023-01-08 10.8km</title></polyline></svg>