<?xml version="1.0" encoding="utf-8" ?>
<svg baseProfile="full" height="300mm" version="1.1" viewBox="0,0,200,300" width="200mm" xmlns="http://www.w3.org/2000/svg" xmlns:ev="http://www.w3.org/2001/xml-events" xmlns:xlink="http://www.w3.org/1999/xlink"><defs /><rect fill="#222222" height="300" width="200" x="0" y="0" /><text fill="#FFFFFF" style="font-size:12px; font-family:Arial; font-weight:bold;" x="10" y="20">Over 1km Runs</text><text fill="#FFFFFF" style="font-size:4px; font-family:Arial" x="10" y="280">ATHLETE</text><text fill="#FFFFFF" style="font-size:9px; font-family:Arial" x="10" y="290">Ergou</text><text fill="#FFFFFF" style="font-size:4px; font-family:Arial" x="120" y="280">STATISTICS</text><text fill="#FFFFFF" style="font-size:3px; font-family:Arial" x="120" y="285">Number: 3</text><text fill="#FFFFFF" style="font-size:3px; font-family:Arial" x="120" y="290">Weekly: 1.5</text><text fill="#FFFFFF" style="font-size:3px; font-family:Arial" x="141" y="285">Total: 13.7 km</text><text fill="#FFFFFF" style="font-size:3px; font-family:Arial" x="141" y="290">Avg: 4.6 km</text><text fill="#FFFFFF" style="font-size:3px; font-family:Arial" x="167" y="285">Min: 1.4 km</text><text fill="#FFFFFF" style="font-size:3px; font-family:Arial" x="167" y="290">Max: 10.8 km</text><polyline fill="none" points="61.78197017824277,39.95299259037711 63.25402572052553,40.48499348573387 60.730501933954656,55.64713994041085 61.67682335386053,59.10520606767386 55.262867061886936,96.74571208585985 55.89374800864607,106.45533424033783 50.11067266296595,109.51455011661164 47.69229570031166,115.5 48.63861712068319,111.2436763420701 48.323176647070795,110.04658863157965 46.43053380632773,111.11066652438603 47.79744252515957,111.50969603122212 49.26949806744233,107.12038036086597 50.42611313657835,109.24853096716106 48.7437639455311,111.64270590269007 55.262867061886936,102.46506696054712 54.737132939044386,96.47969638952054 63.56946619413793,36.49499378283508 62.202557475771755,34.5 59.258446391671896,34.5" stroke="#4dd2ff" stroke-linecap="round" stroke-linejoin="round" stroke-width="0.5"><title>2023-01-12 1.5km</title></polyline><polyline fill="none" points="151.21640916680917,34.5 152.42668351717293,36.44837879622355 145.2750623524189,94.48392376257107 143.07456353213638,100.46859051729552 144.06478800112382,108.26262729312293 137.79336636373773,112.43802841356955 137.5733164823614,115.5 143.734713178128,105.33985658618622 145.38508729357272,78.20023919222876 151.6565089309588,35.4741889371071 147.80563599569723,34.91750943148509" stroke="#4dd2ff" stroke-linecap="round" stroke-linejoin="round" stroke-width="0.5"><title>2023-01-09 1.4km</title></polyline><polyline fill="none" points="79.5648168179905,248.6683422093629 81.78594086051453,234.69893687969306 81.35801787988748,233.20411648205481 82.84555966977496,223.20458484685514 79.07576198305469,217.79268588800915 78.62746171758045,216.6330132338917 81.01160403841641,199.18723335507093 81.5414134429302,198.33688900485868 81.25613145588432,197.48654844524572 79.76858966599684,196.61044395476347 75.28558701148722,196.35276692919433 64.09845766017679,194.39443291001953 54.31736095936503,193.13183347834274 51.70906850590836,192.38458469003672 47.65398883202579,192.22998185793404 46.59437002276536,191.63733882881934 43.00796789920423,188.26188537903363 39.68647047795821,186.32940074725775 33.430644046515226,185.29875028127572 27.154440330108628,184.52576608589152 28.010286291479133,190.03978853026638 26.869158343062736,184.5 39.340056636487134,185.96867245074827 42.58004491857719,187.90115342842182 47.77625254075974,192.3072832582984 52.11661420168821,192.3588175426703 54.52113380737137,193.10606623004423 70.19126581330784,195.42513251921628 70.88409349624999,195.63127310940763 71.31201647676062,196.35276692919433 71.76031674235128,195.76011109130923 72.49389899487142,195.734343487944 80.1761353618931,196.868121328298 81.07273589272518,197.43501277564792 81.76556357566733,197.0742634778726 81.50065887335222,197.15156684134854 81.78594086051453,197.58961982640903 80.54292648809496,203.15555711346678 78.7701027111616,216.7618654028047 79.64632595726289,218.4369515206199 82.88631423935294,222.68915928166825 83.13084165682085,223.74578318948625 81.43952701904345,233.30720716773067 81.94895913882647,234.9824386218679 81.48028158862144,236.16799592867028 80.13538079231512,246.4775006439304 79.70745781157166,247.37960882805055 79.80934423557483,248.64256745635066 78.09765231295023,258.92697057541227 77.6289747627452,264.80402145092376 76.52860138390679,265.5" stroke="#4dd2ff" stroke-linecap="round" stroke-linejoin="round" stroke-width="0.5"><title>2023-01-08 10.8km</title></polyline></svg>