<?xml version="1.0" encoding="utf-8" ?>
<svg baseProfile="full" height="300mm" version="1.1" viewBox="0,0,200,300" width="200mm" xmlns="http://www.w3.org/2000/svg" xmlns:ev="http://www.w3.org/2001/xml-events" xmlns:xlink="http://www.w3.org/1999/xlink"><defs /><rect fill="#222222" height="300" width="200" x="0" y="0" /><text fill="#FFFFFF" style="font-size:12px; font-family:Arial; font-weight:bold;" x="10" y="20">Over 1km Runs</text><text fill="#FFFFFF" style="font-size:4px; font-family:Arial" x="10" y="280">ATHLETE</text><text fill="#FFFFFF" style="font-size:9px; font-family:Arial" x="10" y="290">Ergou</text><text fill="#FFFFFF" style="font-size:4px; font-family:Arial" x="120" y="280">STATISTICS</text><text fill="#FFFFFF" style="font-size:3px; font-family:Arial" x="120" y="285">Number: 12</text><text fill="#FFFFFF" style="font-size:3px; font-family:Arial" x="120" y="290">Weekly: 2.4</text><text fill="#FFFFFF" style="font-size:3px; font-family:Arial" x="141" y="285">Total: 66.4 km</text><text fill="#FFFFFF" style="font-size:3px; font-family:Arial" x="141" y="290">Avg: 5.5 km</text><text fill="#FFFFFF" style="font-size:3px; font-family:Arial" x="167" y="285">Min: 1.4 km</text><text fill="#FFFFFF" style="font-size:3px; font-family:Arial" x="167" y="290">Max: 10.8 km</text><polyline fill="none" points="66.2093275487423,64.25955516420072 67.0,58.77755891857669 59.67895878525451,57.77747683797497 59.29826464212965,60.3332494100905 58.624728850321844,60.55549162987154 47.731019522761926,59.0368400537991 46.09110629069619,58.629398380056955 35.4023861172609,56.962597841455135 29.691973969573155,54.40685670735547 13.0,52.110413991322275 29.662689804797992,54.3327776096412 35.19739696313627,56.85147816600511 37.95010845980141,57.48115692252759 66.47288503241725,61.92598930170061 66.64859002188314,63.96322823880473 65.9750542298425,67.44508985208813 64.3058568330016,67.11171820777236 64.51084598700982,67.59325515752425 65.38937093270943,67.14875948155532 65.94577006518375,67.88958600873593" stroke="#4dd2ff" stroke-linecap="round" stroke-linejoin="round" stroke-width="0.5"><title>2023-02-01 3.8km</title></polyline><polyline fill="none" points="119.53050345787778,85.97977831031312 121.62099982472137,73.4878157893836 121.34116960235406,72.38440779634402 122.59217530209571,64.51504790733452 119.43173984996974,59.8935477193445 119.08606722252443,58.915139786258806 121.04487877874635,44.61443933789269 121.35763020359445,44.11487554301857 121.2094847917324,43.594498312304495 119.95847909199074,42.97004795522662 114.19726863247342,42.137451415503165 113.5882263839012,42.11663655968732 112.97918413532898,42.74108345829882 113.14379014843144,42.59537895562244 112.69935391307808,41.97093264746945 99.30042444425635,39.972721466445364 97.62144311028533,39.389914752944605 94.08241382811684,39.34828578631277 93.17708075593691,38.8695534785511 91.82731144828722,37.39173704080167 89.44052425783593,35.49765500545618 86.52699782548007,34.248822442576056 77.4078246980207,33.08325451469864 77.9674851426389,36.03881892567733 77.34198229270987,33.0 87.69570051867049,34.41533286622143 90.60922695102636,36.246959401032655 93.34168676903937,38.84873906415305 94.23055923986249,39.28584235752351 97.55560070509091,39.32747130727512 99.4156486535212,39.931092342420015 118.7733157974435,42.845158187439665 120.4029153274605,42.865973141713766 121.11072118394077,43.303087830747245 121.42347260890529,44.44791789294686 120.83089096157346,46.94575846297084 119.25067323551048,58.93595691159135 119.5469640592346,59.85191321265302 122.65801770729013,64.45259427800192 121.40701200754847,72.40522674191743 121.78560583770741,73.30044406358502 120.00786089594476,83.27310045305057 120.3699941248633,83.50212519889465 120.56752134056296,83.29392087040469 119.92555788939353,83.52294564718613 119.563424660475,86.79179094303981 118.83915820275433,87.0 118.70747339224909,86.60440303239739" stroke="#4dd2ff" stroke-linecap="round" stroke-linejoin="round" stroke-width="0.5"><title>2023-01-26 10.1km</title></polyline><polyline fill="none" points="160.19097284483723,85.24551909294678 162.46254457859322,70.44750516890781 162.1610085077118,69.20167740038596 163.64858645724598,59.46416502085049 159.38687665585894,53.10835829313146 161.37701472349,38.36371348920511 162.1610085077118,34.982776747841854 162.02029167464934,33.965965549403336 160.53271372511517,33.33046134049073 156.21069670945872,33.0 160.8141473912401,33.48298215481918 161.77906281803735,33.88970493100351 162.02029167464934,34.37268936942564 159.5879007030744,53.36258643982001 163.40735760051757,58.90484541276237 163.78930329042487,60.09975750313606 162.2213157218648,69.45592729537748 162.7238758399617,70.70175674761413 161.89967724634334,74.0070585423382 160.43220170144923,84.58441459049936 159.92964158335235,87.0 159.22605741804,87.0" stroke="#4dd2ff" stroke-linecap="round" stroke-linejoin="round" stroke-width="0.5"><title>2023-01-23 5.3km</title></polyline><polyline fill="none" points="38.470920387189835,133.01906302152202 38.230120448046364,132.62310140545014 41.45683963096235,113.25229051051429 40.97523975302465,111.91223310359055 42.99795924080536,100.09570819424698 37.965240515070036,93.0 41.11971971625462,97.05031250452157 42.733079307712615,99.6084421183914 42.97387924673967,100.67433802771848 42.6849193200469,100.79615502408706 41.095639722421765,112.27770251518814 41.55315960664302,113.67867408390157 39.241480191936716,126.53147193609038 39.09700022847392,127.93253213039134 39.506360124913044,128.26756955456221 38.95252026524395,130.12551340297796 38.83212029573042,133.9023645190755 37.00204075907823,146.2384887164808 37.38732066145167,147.0" stroke="#4dd2ff" stroke-linecap="round" stroke-linejoin="round" stroke-width="0.5"><title>2023-01-20 3.6km</title></polyline><polyline fill="none" points="97.95258495234884,147.0 97.60277534625493,146.53150114731397 98.13777827331796,146.63561190490145 98.46701084368397,145.7246446844656 100.83336994401179,130.78539719438413 100.52471440914087,129.27592098218156 102.08856911887415,119.07425404450623 102.06799208326265,118.52775142417522 97.97316198796034,112.98474105534842 97.80854570271913,112.28211733145872 100.42182923085056,93.0 97.95258495234884,112.38620957324747 102.39722465374507,119.23039793514181 101.90337579802144,120.42750530299963 100.62759958743118,129.04169297521003 101.0597173362039,130.4730908003403 98.36412566539366,146.84383358911145" stroke="#4dd2ff" stroke-linecap="round" stroke-linejoin="round" stroke-width="0.5"><title>2023-01-19 4.8km</title></polyline><polyline fill="none" points="178.22864364867564,137.33342646082747 178.65421509568114,135.3149554959673 178.5123579467181,132.89282274746802 179.77134014421608,125.22296893937164 176.10078641341534,120.33418278497993 175.9589292644523,119.19049671848188 178.3350365103688,103.69544849847443 177.9094650633633,102.75368322664872 176.96966145117767,102.2379568895849 176.59728643496055,102.46218553491053 175.1077863703249,102.30522545138956 170.10732186748646,101.40831353561953 169.45123255322687,102.26037974050269 169.87680400034878,102.05857419146923 169.57535755867139,101.72223215489066 168.4936967974063,101.22893173404736 155.42510694428347,99.36785698091262 152.49930324591696,98.538227971585 149.28978524927516,98.62791739430395 148.01307090814225,97.97767017740989 144.0410707356641,94.41256690910086 141.86001706961542,93.24663780053379 140.2109277122654,93.0 141.87774921325035,93.1569512852293 143.916945730336,94.18834913687897 148.98833880759776,98.42611626134021 152.67662468203343,98.47096093636355 154.68035691196565,99.16605494840769 175.6574828227749,102.30522545138956 177.3597686109133,102.28280259444728 178.0158579251729,102.75368322664872 178.29957222321536,103.96452527193469 176.06532212614547,120.08750473149121 179.7181437133113,125.08841326466063 179.789072287851,125.78361875834526 178.37050079775508,134.26087486222968 178.76060795749072,135.87563941223198 178.139982930501,138.16324942396022 176.84553644573316,147.0" stroke="#4dd2ff" stroke-linecap="round" stroke-linejoin="round" stroke-width="0.5"><title>2023-01-17 8.1km</title></polyline><polyline fill="none" points="66.9595050617354,185.97991749434732 57.119235095568,184.59694141789805 56.32958380191121,184.05912011454348 55.45894263219088,181.34442636265885 46.36782902129926,179.96148412377806 41.99437570304144,178.1944059532252 13.91113610798493,174.02006935072131 13.222722159698606,173.94324193155626 13.242969628772698,174.17372428241652 15.996625421801582,179.09074789308943 13.0,174.09689680096926 13.283464566920884,173.81519630231196 14.964004499372095,173.94324193155626 18.28458942635916,174.78834525530692 41.95388076477684,178.0151380741736 43.917885264381766,179.09074789308943 46.347581552225165,179.8078244982171 55.49943757022265,181.2675959734479 56.18785151850898,183.57252120331395 57.03824521927163,184.41766748041846 66.91901012358721,185.9543067345512 67.0,186.18480369768804" stroke="#4dd2ff" stroke-linecap="round" stroke-linejoin="round" stroke-width="0.5"><title>2023-01-16 5.5km</title></polyline><polyline fill="none" points="77.3049327355111,153.72375543939415 75.87892376689706,167.77979066380067 73.59192825108767,182.00679504213622 73.83408071752638,183.30019895225996 74.47982062783558,184.01497764879605 76.30941704043653,184.79783283587312 91.94170403596945,187.01026283367537 90.62331838568207,194.87305604625726 90.94618834089488,196.30268120381515 98.479820627952,197.32384700269904 100.33632286998909,198.1748216668493 101.57399103150237,197.69827550044283 114.97309417044744,199.84274035535054 119.27802690584213,201.27239374362398 120.91928251134232,201.1702753751306 121.51121076231357,202.7020552533795 121.13452914799564,205.833723131218 121.75336322863586,206.27624456066405 123.36771300446708,205.833723131218 127.0,205.90180330042494 115.6457399103092,200.48948731069686 100.36322869954165,198.44713416707236 95.60089686093852,197.5961585821351 95.03587443951983,196.88134131446714 91.51121076242998,196.5069140321575 90.65022421535105,196.03037102386588 90.56950672657695,194.46459320711438 91.53811659209896,190.03962160635274 91.51121076242998,187.6229391945526 74.50672645738814,185.07013086305233 73.18834080721717,183.19808787555667 73.0,181.6323898875853 73.99551569507457,173.90615329914726 74.5605381167261,171.76190941612003 75.28699551569298,170.94505940802628 74.91031390137505,169.7538245646283 75.31390134536196,168.9369810729404" stroke="#4dd2ff" stroke-linecap="round" stroke-linejoin="round" stroke-width="0.5"><title>2023-01-15 5.5km</title></polyline><polyline fill="none" points="162.33918463310692,206.37577667372534 162.5760640896624,206.52559007966192 162.31944467849098,205.75155545712914 162.89190336503088,201.2072885814996 164.80667897197418,190.67101199159515 164.31318010413088,189.62241071095923 165.85289657162502,179.46127326821443 161.96412549365778,174.09382182790432 161.72724603721872,173.1701366091729 164.43161983240861,155.0468689268455 163.8591611458687,154.32297366621788 162.81294354621787,154.04839344715583 155.41046052984893,153.07488504896173 154.52216256782413,153.19969353135093 154.64060229610186,153.79877542020404 154.50242261309177,153.3744255483034 153.9102239718195,153.574119484314 155.1538411185611,154.09831709298305 155.1538411185611,153.574119484314 154.85774179780856,153.5241959800478 155.52890025812667,153.0 160.99686771281995,153.8986225905246 163.30644241394475,153.8986225905246 164.01708078361116,154.44778299162863 164.47109974187333,155.4712226394331 161.9049056294607,173.6694253431342 166.0897760281805,180.0604403136531 165.694976933999,180.95919452540693 164.47109974187333,189.52254423277918 164.92511870025191,191.2202817046782 164.55005956068635,191.49491717357887 163.48410200641956,197.73674247422605 162.7537236821372,204.32833897159435 162.27996476890985,206.6004968281486 161.56932639947627,206.6004968281486 161.1547873505624,207.0 161.6482862184057,206.32583889877424" stroke="#4dd2ff" stroke-linecap="round" stroke-linejoin="round" stroke-width="0.5"><title>2023-01-15 6.0km</title></polyline><polyline fill="none" points="44.52131345216185,216.63532839354593 45.50268381368369,216.98999565723352 43.82033462263644,227.09809329349082 44.45121556939557,229.40347071178257 40.17524470761418,254.49714139068965 40.59583200560883,260.9702228269307 36.74044844182208,263.0097000777023 35.12819713354111,267.0 35.75907808030024,264.1624508947134 35.54878443153575,263.3643924210919 34.28702253755182,264.0737776829628 35.198295016773045,264.33979735407047 36.179665378294885,261.4135869072052 36.950742091052234,262.83235397806857 35.82917596353218,264.4284706017934 40.17524470761418,258.31004464032594 39.82475529285148,254.3197975930525 45.71297746291384,214.3299958553398 44.80170498415828,213.0 42.8389642611146,213.0" stroke="#4dd2ff" stroke-linecap="round" stroke-linejoin="round" stroke-width="0.5"><title>2023-01-12 1.5km</title></polyline><polyline fill="none" points="104.14427277818322,213.0 104.95112234540284,214.29891919752117 100.18337490176782,252.9892825083807 98.71637568809092,256.9790603448637 99.3765253345482,262.17508486215957 95.19557757629082,264.9586856091628 95.04887765506282,267.0 99.15647545224056,260.2265710575739 100.25672486238182,242.13349279481918 104.4376726206392,213.64945929148234 101.87042399728671,213.27833962102886" stroke="#4dd2ff" stroke-linecap="round" stroke-linejoin="round" stroke-width="0.5"><title>2023-01-09 1.4km</title></polyline><polyline fill="none" points="176.3765445454046,255.77889480625163 177.8572939070291,246.46595791980508 177.572011919925,245.46941098800744 178.56370644655544,238.8030565645604 176.05050798872253,235.19512392533943 175.75164114509244,234.42200882258476 177.34106935898308,222.79148890340002 177.69427562865894,222.22459266989608 177.50408763729502,221.65769896350685 176.51239311072277,221.07362930316594 173.52372467436362,220.9018446194532 166.06563844013726,219.5962886066991 159.54490730632097,218.7545556522382 157.80604567064438,218.2563897933578 155.10265922144754,218.153321238613 154.39624668192118,217.75822588588926 152.00531193288043,215.50792358603212 149.7909803186776,214.21960049818153 145.6204293643823,213.53250018751714 141.43629355344456,213.01717739060405 142.00685752771096,216.69319235350122 141.24610556208063,213.0 149.5600377576775,213.97911496716551 151.72002994571812,215.26743561896728 155.1841683605453,218.20485550552257 158.07774280122248,218.23921169509413 159.68075587163912,218.73737748668646 170.12751054222463,220.28342167945812 170.58939566416666,220.42084873959539 170.87467765121255,220.9018446194532 171.17354449495906,220.50674072752008 171.66259932995308,220.489562325296 176.78409024130087,221.24541421886533 177.38182392856106,221.62334185041254 177.8437090505031,221.38284231859143 177.66710591566516,221.43437789424206 177.8572939070291,221.72641321757692 177.02861765876878,225.43703807564452 175.8467351407744,234.50791026852676 176.4308839715086,235.62463434707024 178.59087615960743,238.45943952113157 178.75389443797758,239.1638554596284 177.62635134602897,245.53813811179134 177.96597275923705,246.65495908123557 177.65352105913917,247.44533061908442 176.75692052819068,254.31833376261056 176.47163854114478,254.91973921869067 176.53956282371655,255.7617116375768 175.39843487535836,262.6179803835985 175.08598317520227,266.53601430062554 174.35240092268214,267.0" stroke="#4dd2ff" stroke-linecap="round" stroke-linejoin="round" stroke-width="0.5"><title>2023-01-08 10.8km</title></polyline></svg>