<?xml version="1.0" encoding="utf-8" ?>
<svg baseProfile="full" height="300mm" version="1.1" viewBox="0,0,200,300" width="200mm" xmlns="http://www.w3.org/2000/svg" xmlns:ev="http://www.w3.org/2001/xml-events" xmlns:xlink="http://www.w3.org/1999/xlink"><defs /><rect fill="#222222" height="300" width="200" x="0" y="0" /><text fill="#FFFFFF" style="font-size:12px; font-family:Arial; font-weight:bold;" x="10" y="20">Over 1km Runs</text><text fill="#FFFFFF" style="font-size:4px; font-family:Arial" x="10" y="280">ATHLETE</text><text fill="#FFFFFF" style="font-size:9px; font-family:Arial" x="10" y="290">Ergou</text><text fill="#FFFFFF" style="font-size:4px; font-family:Arial" x="120" y="280">STATISTICS</text><text fill="#FFFFFF" style="font-size:3px; font-family:Arial" x="120" y="285">Number: 13</text><text fill="#FFFFFF" style="font-size:3px; font-family:Arial" x="120" y="290">Weekly: 2.2</text><text fill="#FFFFFF" style="font-size:3px; font-family:Arial" x="141" y="285">Total: 71.3 km</text><text fill="#FFFFFF" style="font-size:3px; font-family:Arial" x="141" y="290">Avg: 5.5 km</text><text fill="#FFFFFF" style="font-size:3px; font-family:Arial" x="167" y="285">Min: 1.4 km</text><text fill="#FFFFFF" style="font-size:3px; font-family:Arial" x="167" y="290">Max: 10.8 km</text><polyline fill="none" points="33.725184327806346,70.59037574098329 35.13159394438844,62.779782380705 34.889109527808614,61.34856553692953 36.11769723868929,53.64067336017615 32.67441852239426,48.42733497059089 34.82444701669738,33.70829024381237 34.45263757777866,32.89060751593206 33.57969367783517,32.48176780884387 31.80147462245077,32.42044194805203 34.129325022222474,32.39999999999418 34.79211576108355,33.299448327568825 32.80374354461674,48.42733497059089 36.198525377665646,53.51800451078452 34.93760641105473,61.59391603420954 35.260918966610916,62.90245874025277 34.032331255613826,68.91372222997597 33.644356188946404,73.20762812555768 33.094724844559096,75.60000000000582 32.3672715947032,75.60000000000582" stroke="#4dd2ff" stroke-linecap="round" stroke-linejoin="round" stroke-width="0.5"><title>2023-04-13 4.9km</title></polyline><polyline fill="none" points="120.96746203908697,57.407644131279085 121.60000000009313,53.02204713487299 115.74316702829674,52.221981470356695 115.43861171370372,54.266599528025836 114.89978308032732,54.44439330388559 106.18481561832596,53.22947204299271 104.87288503255695,52.903518703999 96.32190889387857,51.570078273129184 91.75357917579822,49.52548536582617 78.40000000002328,47.68833119299961 91.73015184386168,49.466222087678034 96.15791757055558,51.48118253273424 98.36008676793426,51.98492553795222 121.17830802605022,55.540791441279 121.31887201755308,57.170582591032144 120.78004338394385,59.95607188163558 119.44468546647113,59.6893745661946 119.6086767896777,60.07460412598448 120.31149674614426,59.71900758519769 120.75661605212372,60.31166880694218" stroke="#4dd2ff" stroke-linecap="round" stroke-linejoin="round" stroke-width="0.5"><title>2023-02-01 3.8km</title></polyline><polyline fill="none" points="181.62440276623238,74.78382264822721 183.29679985973053,64.79025263150106 183.0729356817901,63.90752623704611 184.07374024164164,57.61203832583851 181.5453918799176,53.914838175463956 181.26885377796134,53.132111829007044 182.83590302290395,41.69155147031415 183.08610416285228,41.291900434414856 182.967587833351,40.875598649843596 181.96678327355767,40.37603836416383 177.35781490599038,39.70996113240835 176.87058110709768,39.693309247726575 176.38334730826318,40.19286676662159 176.51503211871022,40.076303164474666 176.15948313038098,39.57674611796392 165.4403395553236,37.97817717315047 164.0971544882632,37.511931802349864 161.26593106240034,37.47862862906186 160.54166460467968,37.09564278283506 159.46184915857157,35.91338963265298 157.55241940624546,34.398124004364945 155.2215982603375,33.399057954055024 147.92625975841656,32.46660361177055 148.37398811412277,34.831055140530225 147.8735858341679,32.39999999999418 156.1565604149364,33.53226629298297 158.48738156078616,34.99756752079702 160.67334941518493,37.07899125129916 161.38444739184342,37.42867388599552 164.04448056407273,37.46197704580845 165.53251892275875,37.94487387393019 181.0186526379548,40.27612654995755 182.32233226194512,40.29277851336519 182.8885769470944,40.64247026460362 183.13877808710095,41.55833431435167 182.6647127692704,43.556606770376675 181.40053858840838,53.14876552927308 181.63757124735275,53.88153057009913 184.1264141657739,57.56207542240736 183.12560960598057,63.9241813935223 183.42848467017757,64.64035525085637 182.00628871674417,72.61848036243464 182.2959952998208,72.80170015909243 182.45401707245037,72.63513669630629 181.94044631149154,72.81835651773144 181.6507397283567,75.43343275442021 181.07132656214526,75.60000000000582 180.96597871376434,75.28352242591791" stroke="#4dd2ff" stroke-linecap="round" stroke-linejoin="round" stroke-width="0.5"><title>2023-01-26 10.1km</title></polyline><polyline fill="none" points="34.15277827589307,122.19641527434578 35.970035662990995,110.35800413510879 35.72880680626258,109.36134192033205 36.918869165936485,101.57133201672696 33.50950132479193,96.48668663451099 35.10161177889677,84.69097079138737 35.72880680626258,81.98622139825602 35.61623333982425,81.17277243951685 34.426170980150346,80.66436907238676 30.96855736762518,80.39999999999418 34.65131791314343,80.78638572388445 35.42325025447644,81.11176394482027 35.61623333982425,81.49815149555798 33.67032056255266,96.69006915186765 36.72588608053047,101.1238763302099 37.03144263243303,102.07980600255542 35.77705257758498,109.5647418363078 36.17910067207413,110.56140539809712 35.51974179717945,113.20564683387056 34.34576136129908,121.66753167239949 33.94371326675173,123.60000000000582 33.38084593456006,123.60000000000582" stroke="#4dd2ff" stroke-linecap="round" stroke-linejoin="round" stroke-width="0.5"><title>2023-01-23 5.3km</title></polyline><polyline fill="none" points="98.77673630975187,112.41525041725254 98.58409635850694,112.0984811243543 101.16547170479316,96.60183240842889 100.78019180241972,95.5297864828899 102.39836739271414,86.07656655539176 98.37219241214916,80.40000000002328 100.89577577309683,83.64025000363472 102.18646344623994,85.68675369469565 102.37910339748487,86.53947042219806 102.14793545613065,86.636924019258 100.87651177798398,95.82216201216215 101.24252768536098,96.94293926711543 99.39318415359594,107.22517754888395 99.27760018291883,108.34602570431889 99.60508809995372,108.61405564367305 99.16201621224172,110.10041072239983 99.06569623667747,113.12189161524293 97.60163260728586,122.99079097318463 97.9098565292079,123.60000000000582" stroke="#4dd2ff" stroke-linecap="round" stroke-linejoin="round" stroke-width="0.5"><title>2023-01-20 3.6km</title></polyline><polyline fill="none" points="164.3620679618325,123.60000000000582 164.0822202769341,123.22520091786282 164.5102226184681,123.30848952397355 164.77360867487732,122.57971574758994 166.66669595509302,110.62831775553059 166.4197715272894,109.42073678577435 167.67085529502947,101.25940323562827 167.65439366654027,100.82220113935182 164.3785295903217,96.3877928443253 164.2468365621753,95.82569386519026 166.3374633846106,80.40000000002328 164.3620679618325,95.90896765861544 167.9177797229495,101.38431834816583 167.52270063827746,102.34200424241135 166.5020796698518,109.23335438020877 166.84777386893984,110.37847264029551 164.69130053231493,123.47506687129498" stroke="#4dd2ff" stroke-linecap="round" stroke-linejoin="round" stroke-width="0.5"><title>2023-01-19 4.8km</title></polyline><polyline fill="none" points="48.58291491883574,163.86674116866197 48.923372076416854,162.25196439679712 48.80988635722315,160.31425819799188 49.81707211525645,154.17837515150313 46.88062913058093,150.26734622800723 46.767143411387224,149.35239737477968 48.66802920826012,136.95635879880865 48.3275720506208,136.2029465813248 47.57572916080244,135.79036551169702 47.27782914787531,135.9697484279459 46.08622909616679,135.84418036113493 42.08585749386111,135.1266508284898 41.560986042488366,135.80830379240797 41.901443200185895,135.6468593531754 41.66028604685562,135.37778572391835 40.79495743778534,134.98314538723207 30.340085555333644,133.49428558474756 27.99944259657059,132.830582377268 25.43182819930371,132.90233391546644 24.410456726385746,132.38213614193955 21.232856588438153,129.53005352729815 19.488013655529357,128.59731024043867 18.168742169742472,128.39999999999418 19.502199370472226,128.52556102818926 21.13355658412911,129.35067930951482 25.19067104603164,132.74089300906053 28.141299745533615,132.77676874908502 29.744285529421177,133.33284395874944 46.525986258115154,135.84418036113493 47.88781488867244,135.82624207556364 48.412686340045184,136.2029465813248 48.6396577784908,137.1716202175594 46.852257700811606,150.07000378522207 49.77451497054426,154.07073061174015 49.83125783019932,154.62689500668785 48.69640063808765,161.40869988978375 49.008486365841236,162.70051152977976 48.51198634435423,164.53059953916818 47.476429156493396,171.60000000000582" stroke="#4dd2ff" stroke-linecap="round" stroke-linejoin="round" stroke-width="0.5"><title>2023-01-17 8.1km</title></polyline><polyline fill="none" points="121.56760404945817,154.78393399549532 113.6953880765941,153.67755313433008 113.06366704171523,153.24729609163478 112.36715410579927,151.075541090162 105.0942632171791,149.96918729905155 101.59550056245644,148.55552476260345 79.1289088864578,145.2160554805887 78.5781777278753,145.1545935452741 78.59437570313457,145.3389794259565 80.79730033758096,149.27259831447736 78.40000000002328,145.27751744078705 78.62677165365312,145.05215704184957 79.97120359959081,145.1545935452741 82.62767154118046,145.8306762042339 101.56310461193789,148.41211045935052 103.13430821162183,149.27259831447736 105.07806524191983,149.84625959856203 112.39955005631782,151.0140767787816 112.95028121490031,152.85801696268027 113.63059617544059,153.53413398435805 121.53520809905604,154.7634453876526 121.60000000009313,154.94784295815043" stroke="#4dd2ff" stroke-linecap="round" stroke-linejoin="round" stroke-width="0.5"><title>2023-01-16 5.5km</title></polyline><polyline fill="none" points="147.84394618833903,128.9790043514804 146.70313901349436,140.22383253101725 144.87354260089342,151.60543603362748 145.06726457399782,152.6401591617614 145.5838565021986,153.21198211895535 147.0475336323725,153.83826626866357 159.55336322868243,155.6082102668588 158.4986547084991,161.89844483695924 158.7569506727159,163.04214496299392 164.78385650226846,163.85907760210102 166.26905829599127,164.5398573334096 167.25919282517862,164.15862040029606 177.97847533633467,165.8741922842455 181.42242152465042,167.01791499485262 182.73542600905057,166.93622030003462 183.2089686098043,168.16164420265704 182.90762331837323,170.6669785049162 183.4026905829087,171.0209956485196 184.6941704035271,170.6669785049162 187.59999999997672,170.7214426402934 178.5165919283172,166.39158984849928 166.2905829596566,164.75770733359968 162.48071748879738,164.07692686567316 162.02869955159258,163.50507305149222 159.2089686099207,163.20553122571437 158.52017937228084,162.82429681904614 158.45560538116843,161.57167456566822 159.23049327370245,158.03169728507055 159.2089686099207,156.09835135564208 145.60538116586395,154.05610469041858 144.55067264579702,152.55847030039877 144.40000000002328,151.30591191002168 145.19641255610622,145.1249226392829 145.64843049331103,143.40952753281454 146.22959641250782,142.75604752637446 145.92825112107676,141.8030596516328 146.25112107628956,141.14958485827083" stroke="#4dd2ff" stroke-linecap="round" stroke-linejoin="round" stroke-width="0.5"><title>2023-01-15 5.5km</title></polyline><polyline fill="none" points="35.8713477064739,219.1006213389919 36.060851271729916,219.22047206375282 35.85555574280443,218.60124436570914 36.313522692013066,214.96583086519968 37.84534317755606,206.53680959329358 37.450544083316345,205.69792856878485 38.682317257276736,197.56901861459482 35.5713003949495,193.2750574623351 35.38179682975169,192.53610928734997 37.54529586597346,178.03749514149968 37.08732891670661,177.45837893299176 36.250354836985935,177.23871475775377 30.328368423855864,176.45990803919267 29.61773005424766,176.55975482508074 29.712481836846564,177.03902033617487 29.601938090461772,176.69954043865437 29.128179177467246,176.85929558746284 30.123072894872166,177.27865367440972 30.123072894872166,176.85929558746284 29.886193438258488,176.819356784079 30.42312020645477,176.40000000002328 34.79749417025596,177.1188980724255 36.64515393116744,177.1188980724255 37.21366462687729,177.5582263933029 37.576879793487024,178.37697811156977 35.52392450359184,192.9355402745132 38.871820822532754,198.04835225094575 38.555981547164265,198.76735562033718 37.576879793487024,205.61803538625827 37.94009496021317,206.97622536376002 37.64004764857236,207.19593373889802 36.7872816050658,212.18939397940994 36.20297894568648,217.46267117728712 35.823971815174446,219.28039746254217 35.255461119581014,219.28039746254217 34.92382988042664,219.60000000000582 35.31862897466635,219.0606711190194" stroke="#4dd2ff" stroke-linecap="round" stroke-linejoin="round" stroke-width="0.5"><title>2023-01-15 6.0km</title></polyline><polyline fill="none" points="103.61705076158978,179.3082627147669 104.40214705094695,179.59199652564712 103.05626769806258,187.67847463476937 103.5609724551905,189.5227765693562 100.14019576623105,209.59771311248187 100.47666560439393,214.776178261498 97.39235875336453,216.40776006213855 96.10255770664662,219.59999999997672 96.6072624642402,217.32996071572416 96.43902754504234,216.69151393673383 95.42961803008802,217.25902214634698 96.15863601327874,217.4718378832331 96.94373230240308,215.13086952571757 97.56059367256239,216.2658831824083 96.66334077063948,217.54277648136485 100.14019576623105,212.6480357121909 99.85980423423462,209.45583807432558 104.57038197014481,177.4639966841787 103.84136398718692,176.39999999990687 102.27117140870541,176.39999999990687" stroke="#4dd2ff" stroke-linecap="round" stroke-linejoin="round" stroke-width="0.5"><title>2023-01-12 1.5km</title></polyline><polyline fill="none" points="169.31541822268628,176.39999999990687 169.96089787618257,177.43913535797037 166.14669992146082,208.3914260066813 164.97310055070557,211.5832482757978 165.50122026749887,215.7400678896811 162.1564620609861,217.9669484872138 162.03910212405026,219.59999999997672 165.3251803619787,214.1812568459427 166.20537989004515,199.70679423573893 169.55013809679076,176.91956743306946 167.49633919796906,176.62267169670667" stroke="#4dd2ff" stroke-linecap="round" stroke-linejoin="round" stroke-width="0.5"><title>2023-01-09 1.4km</title></polyline><polyline fill="none" points="47.10123563633533,258.6231158450246 48.285835125658195,251.17276633583242 48.05760953598656,250.37552879043506 48.85096515726764,245.04244525165996 46.840406391071156,242.15609914029483 46.6013129161438,241.5376070580678 47.872855487221386,232.23319112273748 48.155420502997,231.77967413590522 48.00327010988258,231.32615917079966 47.2099144886015,230.85890344253858 44.818979739560746,230.72147569558 38.85251075215638,229.67703088535927 33.635925845068414,229.00364452178474 32.244836536527146,228.60511183470953 30.08212737715803,228.52265699091367 29.51699734554859,228.2065807087056 27.604249546362553,226.40633886883734 25.832784254977014,225.37568039854523 22.496343491540756,224.82600015003118 19.14903484279057,224.41374191248906 19.605486022192053,227.35455388281844 18.996884449676145,224.39999999999418 25.648030206211843,225.18329197374987 27.376023956632707,226.2139484951913 30.14733468851773,228.5638844044297 32.46219424100127,228.59136935608694 33.74460469733458,228.98990198934916 42.10200843383791,230.22673734358978 42.47151653136825,230.3366789916763 42.69974212103989,230.72147569558 42.93883559596725,230.40539258203353 43.33007946400903,230.39164986024844 47.42727219307562,230.99633137512137 47.90545914287213,231.29867348034168 48.27496724046068,231.10627385487896 48.13368473254377,231.1475023154053 48.285835125658195,231.38113057409646 47.622894127096515,234.34963046052144 46.67738811270101,241.60632821483887 47.144707177300006,242.499707477662 48.87270092772087,244.76755161691108 49.00311555038206,245.33108436773182 48.101081076893024,250.4305104894447 48.37277820741292,251.32396726499428 48.12281684734626,251.95626449529664 47.40553642262239,257.45466701008263 47.17731083295075,257.93579137497 47.23165025905473,258.6093693100556 46.31874790030997,264.09438430689625 46.06878654024331,267.2288114404946 45.481920738180634,267.6000000000058" stroke="#4dd2ff" stroke-linecap="round" stroke-linejoin="round" stroke-width="0.5"><title>2023-01-08 10.8km</title></polyline></svg>