<?xml version="1.0" encoding="utf-8" ?>
<svg baseProfile="full" height="300mm" version="1.1" viewBox="0,0,200,300" width="200mm" xmlns="http://www.w3.org/2000/svg" xmlns:ev="http://www.w3.org/2001/xml-events" xmlns:xlink="http://www.w3.org/1999/xlink"><defs /><rect fill="#222222" height="300" width="200" x="0" y="0" /><text fill="#FFFFFF" style="font-size:12px; font-family:Arial; font-weight:bold;" x="10" y="20">Over 1km Runs</text><text fill="#FFFFFF" style="font-size:4px; font-family:Arial" x="10" y="280">ATHLETE</text><text fill="#FFFFFF" style="font-size:9px; font-family:Arial" x="10" y="290">Ergou</text><text fill="#FFFFFF" style="font-size:4px; font-family:Arial" x="120" y="280">STATISTICS</text><text fill="#FFFFFF" style="font-size:3px; font-family:Arial" x="120" y="285">Number: 6</text><text fill="#FFFFFF" style="font-size:3px; font-family:Arial" x="120" y="290">Weekly: 2.0</text><text fill="#FFFFFF" style="font-size:3px; font-family:Arial" x="141" y="285">Total: 30.7 km</text><text fill="#FFFFFF" style="font-size:3px; font-family:Arial" x="141" y="290">Avg: 5.1 km</text><text fill="#FFFFFF" style="font-size:3px; font-family:Arial" x="167" y="285">Min: 1.4 km</text><text fill="#FFFFFF" style="font-size:3px; font-family:Arial" x="167" y="290">Max: 10.8 km</text><polyline fill="none" points="85.94600674894173,77.97322332585463 72.82564679405186,76.12925522390287 71.77277840254828,75.41216015274404 70.61192350951023,71.79256848362274 58.49043869506568,69.94864549842896 52.659167604055256,67.59254127100576 15.214848143979907,62.02675913431449 14.296962879714556,61.92432257550536 14.32395950506907,62.23163237661356 17.99550056247972,68.78766385745257 14.0,62.12919573468389 14.377952755894512,61.75359506980749 16.61867266590707,61.92432257550536 21.046119235106744,63.0511270071147 52.6051743531134,67.35351743228966 55.22384701913688,68.78766385745257 58.463442069711164,69.74376599764219 70.66591676033568,71.6901279646554 71.58380202460103,74.76336160447681 72.71766029228456,75.89022330724401 85.89201349811628,77.93907564610709 86.0,78.24640493025072" stroke="#4dd2ff" stroke-linecap="round" stroke-linejoin="round" stroke-width="0.5"><title>2023-01-16 5.5km</title></polyline><polyline fill="none" points="119.73991031385958,34.96500725246733 117.8385650224518,53.706387551676016 114.78923766803928,72.67572672275128 115.1121076233685,74.40026526962174 115.97309417044744,75.35330353165045 118.41255605383776,76.39711044775322 139.255605381215,79.34701711148955 137.49775784742087,89.83074139489327 137.92825112096034,91.73690827173414 147.97309417044744,93.09846267016837 150.44843049324118,94.23309555568267 152.09865470859222,93.5977006672183 169.96412556036375,96.45698714040918 175.70403587445617,98.3631916581071 177.89237668178976,98.22703383339103 178.6816143495962,100.26940700446721 178.1793721972499,104.44496417487971 179.00448430492543,105.03499274753267 181.15695067262277,104.44496417487971 186.0,104.53573773388052 170.86098654707894,97.31931641418487 150.4843049326446,94.59617888939101 144.13452914799564,93.46154477616074 143.38116591912694,92.50845508585917 138.68161434982903,92.00921870954335 137.53363228705712,91.37382803176297 137.42600896861404,89.2861242761137 138.71748878946528,83.38616214174544 138.68161434982903,80.16391892603133 116.00896860985085,76.76017448399216 114.25112107628956,74.26411716738949 114.0,72.17651985003613 115.32735426002182,61.87487106543267 116.08071748889051,59.01587922137696 117.0493273541797,57.92674587731017 116.5470852018334,56.33843275276013 117.08520179381594,55.249308097176254" stroke="#4dd2ff" stroke-linecap="round" stroke-linejoin="round" stroke-width="0.5"><title>2023-01-15 5.5km</title></polyline><polyline fill="none" points="53.118912844220176,185.1677022316726 53.434752119588666,185.36745343956864 53.09259290469345,184.3354072761722 53.85587115341332,178.2763847753522 56.40890529600438,164.22801598883234 55.750906805624254,162.82988094800385 57.80386209557764,149.28169769095257 52.618833991582505,142.1250957705779 52.302994716214016,140.89351547887782 55.90882644325029,116.72915856918553 55.14554819453042,115.7639648882905 53.750591394957155,115.39785792957991 43.88061403972097,114.09984673192957 42.69621675706003,114.26625804178184 42.85413639480248,115.06503389362479 42.6698968175333,114.49923406442394 41.880298629170284,114.76549264573259 43.53845482482575,115.46442279068287 43.53845482482575,114.76549264573259 43.143655730527826,114.69892797345528 44.03853367746342,114.0 51.3291569504654,115.19816345401341 54.40858988533728,115.19816345401341 55.35610771155916,115.9303773221909 55.96146632253658,117.29496351926355 52.53987417276949,141.5592337908456 58.11970137094613,150.08058708487079 57.593302578665316,151.2789260338759 55.96146632253658,162.69672564370558 56.56682493374683,164.960375606257 56.06674608099274,165.3265562314773 54.64546934189275,173.64898996567354 53.67163157614414,182.43778529547853 53.03995302529074,185.46732910419814 52.09243519930169,185.46732910419814 51.53971646737773,186.0 52.19771495787427,185.10111853171838" stroke="#4dd2ff" stroke-linecap="round" stroke-linejoin="round" stroke-width="0.5"><title>2023-01-15 6.0km</title></polyline><polyline fill="none" points="156.02841793606058,118.84710452472791 157.33691175142303,119.31999420956708 155.09377949684858,132.79745772480965 155.9349540923722,135.87129428237677 150.23365961015224,169.32952185417525 150.7944426741451,177.96029710257426 145.653931255918,180.67960010352544 143.50426284456626,186.0 144.34543744055554,182.2166011929512 144.0650459085591,181.15252322796732 142.38269671658054,182.09837024402805 143.5977266887203,182.45306313876063 144.90622050408274,178.5514492096845 145.93432278791443,180.44313863734715 144.43890128470957,182.5712941356469 150.23365961015224,174.41339285392314 149.76634039031342,169.09306345740333 157.61730328341946,115.77332780696452 156.40227331174538,114.0 153.78528568148613,114.0" stroke="#4dd2ff" stroke-linecap="round" stroke-linejoin="round" stroke-width="0.5"><title>2023-01-12 1.5km</title></polyline><polyline fill="none" points="55.52569703757763,194.0 56.601496460381895,195.73189226351678 50.24449986917898,247.31904334458522 48.28850091760978,252.63874712656252 49.16870044590905,259.56677981629036 43.59410343505442,263.2782474788837 43.398503540083766,266.0 48.87530060345307,256.9687614100985 50.34229981666431,232.8446570597589 55.9168968279846,194.86594572197646 52.49389866320416,194.37111949478276" stroke="#4dd2ff" stroke-linecap="round" stroke-linejoin="round" stroke-width="0.5"><title>2023-01-09 1.4km</title></polyline><polyline fill="none" points="171.83539272716735,251.0385264083452 173.80972520937212,238.62127722639707 173.42934922664426,237.29254798401962 174.75160859548487,228.40407541941386 171.4006773183355,223.59349856714834 171.00218819349539,222.562678430113 173.12142581201624,207.0553185378667 173.5923675049562,206.29945689317537 173.33878351643216,205.54359861800913 172.01652414770797,204.76483907087822 168.0316328991903,204.53579282594728 158.08751792018302,202.79505147557938 149.3932097418001,201.67274086966063 147.07472756085917,201.0085197245062 143.4702122953022,200.87109498481732 142.52832890918944,200.34430118117598 139.34041591058485,197.3438981147192 136.38797375827562,195.62613399757538 130.82723915250972,194.71000025005196 125.24839140463155,194.02290318746236 126.00914337032009,198.92425647136406 124.9948074161075,194.0 136.0800503436476,195.30548662290676 138.96003992762417,197.02324749194668 143.57889114739373,200.93980734070647 147.43699040159117,200.98561559346854 149.5743411622243,201.64983664892497 163.50334738963284,203.71122890597326 164.1191942190053,203.89446498613688 164.49957020161673,204.53579282594728 164.89805932657328,204.00898763671285 165.55013243993744,203.98608310040436 172.37878698843997,204.99388562518288 173.17576523812022,205.4977891338931 173.79161206737626,205.17712309144554 173.55614122084808,205.24583719234215 173.80972520937212,205.635217623465 172.70482354506385,210.5827174342121 171.1289801876992,222.6772136913787 171.9078452953836,224.1661791294464 174.78783487947658,227.94591936151846 175.0051925840089,228.88514061286696 173.5018017947441,237.38418414909393 173.9546303456882,238.87327877499047 173.53802807885222,239.92710749214166 172.34256070433185,249.09111168349045 171.96218472148757,249.8929856249306 172.05275043169968,251.01561551677878 170.531246500439,260.1573071781313 170.11464423360303,265.38135240084375 169.136534563615,266.0" stroke="#4dd2ff" stroke-linecap="round" stroke-linejoin="round" stroke-width="0.5"><title>2023-01-08 10.8km</title></polyline></svg>