<?xml version="1.0" encoding="utf-8" ?>
<svg baseProfile="full" height="300mm" version="1.1" viewBox="0,0,200,300" width="200mm" xmlns="http://www.w3.org/2000/svg" xmlns:ev="http://www.w3.org/2001/xml-events" xmlns:xlink="http://www.w3.org/1999/xlink"><defs /><rect fill="#222222" height="300" width="200" x="0" y="0" /><text fill="#FFFFFF" style="font-size:12px; font-family:Arial; font-weight:bold;" x="10" y="20">Over 1km Runs</text><text fill="#FFFFFF" style="font-size:4px; font-family:Arial" x="10" y="280">ATHLETE</text><text fill="#FFFFFF" style="font-size:9px; font-family:Arial" x="10" y="290">Ergou</text><text fill="#FFFFFF" style="font-size:4px; font-family:Arial" x="120" y="280">STATISTICS</text><text fill="#FFFFFF" style="font-size:3px; font-family:Arial" x="120" y="285">Number: 4</text><text fill="#FFFFFF" style="font-size:3px; font-family:Arial" x="120" y="290">Weekly: 2.0</text><text fill="#FFFFFF" style="font-size:3px; font-family:Arial" x="141" y="285">Total: 19.7 km</text><text fill="#FFFFFF" style="font-size:3px; font-family:Arial" x="141" y="290">Avg: 4.9 km</text><text fill="#FFFFFF" style="font-size:3px; font-family:Arial" x="167" y="285">Min: 1.4 km</text><text fill="#FFFFFF" style="font-size:3px; font-family:Arial" x="167" y="290">Max: 10.8 km</text><polyline fill="none" points="58.508776949485764,114.56366501061711 58.86409613431897,114.78838511952199 58.47916701762006,113.62733318569371 59.33785504742991,106.81093287223484 62.21001845784485,91.00651798740728 61.4697701560799,89.43361606646795 63.77934485732112,74.19190990232164 57.94618824031204,66.14073274185648 57.59086905559525,64.75520491373027 61.647429748554714,37.570303390326444 60.78874171874486,36.48446049937047 59.21941531926859,36.0725901707774 48.11569079454057,34.6123275734717 46.78324385150336,34.799540297011845 46.96090344397817,35.69816313032061 46.753633919521235,35.061638322484214 45.86533595772926,35.36117922648555 47.73076167772524,36.147475639532786 47.73076167772524,35.36117922648555 47.28661269671284,35.28629397012992 48.29335038701538,34.5 56.49530156911351,35.84793388581602 59.95966362080071,35.84793388581602 61.02562117530033,36.67167448741384 61.70664961275179,38.20683395920787 57.85735844413284,65.50413801468676 64.13466404215433,75.09066047047963 63.542465400882065,76.43879178812495 61.70664961275179,89.28381634916877 62.38767805020325,91.8304225570173 61.82508934091311,92.24237576039741 60.22615300945472,101.60511371138273 59.13058552297298,111.49250845739152 58.419947153306566,114.90074524225201 57.35398959903978,114.90074524225201 56.73218102566898,115.5 57.47242932743393,114.48875834816135" stroke="#4dd2ff" stroke-linecap="round" stroke-linejoin="round" stroke-width="0.5"><title>2023-01-15 6.0km</title></polyline><polyline fill="none" points="151.78197017824277,39.95299259037711 153.25402572052553,40.48499348573387 150.73050193395466,55.64713994041085 151.67682335386053,59.10520606767386 145.26286706188694,96.74571208585985 145.89374800864607,106.45533424033783 140.11067266296595,109.51455011661164 137.69229570031166,115.5 138.6386171206832,111.2436763420701 138.3231766470708,110.04658863157965 136.43053380632773,111.11066652438603 137.79744252515957,111.50969603122212 139.26949806744233,107.12038036086597 140.42611313657835,109.24853096716106 138.7437639455311,111.64270590269007 145.26286706188694,102.46506696054712 144.7371329390444,96.47969638952054 153.56946619413793,36.49499378283508 152.20255747577175,34.5 149.2584463916719,34.5" stroke="#4dd2ff" stroke-linecap="round" stroke-linejoin="round" stroke-width="0.5"><title>2023-01-12 1.5km</title></polyline><polyline fill="none" points="61.21640916680917,184.5 62.42668351717293,186.44837879622355 55.2750623524189,244.48392376257107 53.07456353213638,250.46859051729552 54.064788001123816,258.26262729312293 47.79336636373773,262.43802841356955 47.573316482361406,265.5 53.734713178128004,255.33985658618622 55.385087293572724,228.20023919222876 61.65650893095881,185.4741889371071 57.80563599569723,184.9175094314851" stroke="#4dd2ff" stroke-linecap="round" stroke-linejoin="round" stroke-width="0.5"><title>2023-01-09 1.4km</title></polyline><polyline fill="none" points="169.5648168179905,248.6683422093629 171.78594086051453,234.69893687969306 171.35801787988748,233.20411648205481 172.84555966977496,223.20458484685514 169.0757619830547,217.79268588800915 168.62746171758045,216.6330132338917 171.0116040384164,199.18723335507093 171.5414134429302,198.33688900485868 171.25613145588432,197.48654844524572 169.76858966599684,196.61044395476347 165.28558701148722,196.35276692919433 154.0984576601768,194.39443291001953 144.31736095936503,193.13183347834274 141.70906850590836,192.38458469003672 137.6539888320258,192.22998185793404 136.59437002276536,191.63733882881934 133.00796789920423,188.26188537903363 129.6864704779582,186.32940074725775 123.43064404651523,185.29875028127572 117.15444033010863,184.52576608589152 118.01028629147913,190.03978853026638 116.86915834306274,184.5 129.34005663648713,185.96867245074827 132.5800449185772,187.90115342842182 137.77625254075974,192.3072832582984 142.1166142016882,192.3588175426703 144.52113380737137,193.10606623004423 160.19126581330784,195.42513251921628 160.88409349625,195.63127310940763 161.31201647676062,196.35276692919433 161.76031674235128,195.76011109130923 162.49389899487142,195.734343487944 170.1761353618931,196.868121328298 171.07273589272518,197.43501277564792 171.76556357566733,197.0742634778726 171.50065887335222,197.15156684134854 171.78594086051453,197.58961982640903 170.54292648809496,203.15555711346678 168.7701027111616,216.7618654028047 169.6463259572629,218.4369515206199 172.88631423935294,222.68915928166825 173.13084165682085,223.74578318948625 171.43952701904345,233.30720716773067 171.94895913882647,234.9824386218679 171.48028158862144,236.16799592867028 170.13538079231512,246.4775006439304 169.70745781157166,247.37960882805055 169.80934423557483,248.64256745635066 168.09765231295023,258.92697057541227 167.6289747627452,264.80402145092376 166.5286013839068,265.5" stroke="#4dd2ff" stroke-linecap="round" stroke-linejoin="round" stroke-width="0.5"><title>2023-01-08 10.8km</title></polyline></svg>